<?xml version="1.0" encoding="UTF-8" standalone="no"?>
<!-- Created with Inkscape (http://www.inkscape.org/) -->

<svg
   xmlns:ns1="http://www.iki.fi/pav/software/textext/"
   xmlns:osb="http://www.openswatchbook.org/uri/2009/osb"
   xmlns:dc="http://purl.org/dc/elements/1.1/"
   xmlns:cc="http://creativecommons.org/ns#"
   xmlns:rdf="http://www.w3.org/1999/02/22-rdf-syntax-ns#"
   xmlns:svg="http://www.w3.org/2000/svg"
   xmlns="http://www.w3.org/2000/svg"
   xmlns:sodipodi="http://sodipodi.sourceforge.net/DTD/sodipodi-0.dtd"
   xmlns:inkscape="http://www.inkscape.org/namespaces/inkscape"
   width="200mm"
   height="200mm"
   viewBox="0 0 200 200"
   version="1.1"
   id="svg8"
   inkscape:version="0.92.3 (2405546, 2018-03-11)"
   sodipodi:docname="enrichment_zone.svg">
  <sodipodi:namedview
     id="base"
     pagecolor="#ffffff"
     bordercolor="#666666"
     borderopacity="1.0"
     inkscape:pageopacity="0.0"
     inkscape:pageshadow="2"
     inkscape:zoom="1"
     inkscape:cx="212.99877"
     inkscape:cy="516.75823"
     inkscape:document-units="mm"
     inkscape:current-layer="layer1"
     showgrid="false"
     inkscape:snap-midpoints="true"
     inkscape:snap-intersection-paths="true"
     inkscape:snap-grids="true"
     inkscape:window-width="1613"
     inkscape:window-height="995"
     inkscape:window-x="67"
     inkscape:window-y="27"
     inkscape:window-maximized="1"
     inkscape:snap-object-midpoints="true"
     inkscape:snap-global="true">
    <inkscape:grid
       type="xygrid"
       id="grid821" />
  </sodipodi:namedview>
  <defs
     id="defs2">
    <linearGradient
       id="linearGradient6427"
       osb:paint="solid">
      <stop
         style="stop-color:#000000;stop-opacity:1;"
         offset="0"
         id="stop6425" />
    </linearGradient>
  </defs>
  <metadata
     id="metadata5">
    <rdf:RDF>
      <cc:Work
         rdf:about="">
        <dc:format>image/svg+xml</dc:format>
        <dc:type
           rdf:resource="http://purl.org/dc/dcmitype/StillImage" />
        <dc:title />
      </cc:Work>
    </rdf:RDF>
  </metadata>
  <g
     inkscape:label="Layer 1"
     inkscape:groupmode="layer"
     id="layer1"
     transform="translate(0,-97)">
    <g
       id="g1110"
       transform="matrix(0.35277777,0,0,0.35277777,12.735701,102.79563)">
      <path
         d="m 202.5,202.633 h 60 v 60 h -60 z"
         style="fill:#000000;fill-opacity:0.14473703;fill-rule:nonzero;stroke:none"
         id="path14"
         inkscape:connector-curvature="0" />
      <path
         d="m 82.5,82.633 h 60 v 60 h -60 z"
         style="fill:#000000;fill-opacity:0.14473703;fill-rule:nonzero;stroke:none"
         id="path16"
         inkscape:connector-curvature="0" />
      <path
         d="m 82.5,22.633 h 60 v 60 h -60 z"
         style="fill:#000000;fill-opacity:0.14473703;fill-rule:nonzero;stroke:none"
         id="path18"
         inkscape:connector-curvature="0" />
      <path
         d="m 142.5,22.633 h 60 v 60 h -60 z"
         style="fill:#000000;fill-opacity:0.14473703;fill-rule:nonzero;stroke:none"
         id="path20"
         inkscape:connector-curvature="0" />
      <path
         d="m 262.5,22.633 h 60 v 60 h -60 z"
         style="fill:#000000;fill-opacity:0.14473703;fill-rule:nonzero;stroke:none"
         id="path22"
         inkscape:connector-curvature="0" />
      <path
         d="m 262.5,82.633 h 60 v 60 h -60 z"
         style="fill:#000000;fill-opacity:0.14473703;fill-rule:nonzero;stroke:none"
         id="path24"
         inkscape:connector-curvature="0" />
      <path
         d="m 262.5,142.633 h 60 v 60 h -60 z"
         style="fill:#000000;fill-opacity:0.14473703;fill-rule:nonzero;stroke:none"
         id="path26"
         inkscape:connector-curvature="0" />
      <path
         d="m 142.5,262.633 h 60 v 60 h -60 z"
         style="fill:#000000;fill-opacity:0.14473703;fill-rule:nonzero;stroke:none"
         id="path28"
         inkscape:connector-curvature="0" />
      <path
         d="m 82.5,262.633 h 60 v 60 h -60 z"
         style="fill:#000000;fill-opacity:0.14473703;fill-rule:nonzero;stroke:none"
         id="path30"
         inkscape:connector-curvature="0" />
      <path
         d="m 22.5,202.633 h 60 v 60 h -60 z"
         style="fill:#000000;fill-opacity:0.14473703;fill-rule:nonzero;stroke:none"
         id="path32"
         inkscape:connector-curvature="0" />
      <path
         d="m 22.5,142.633 h 60 v 60 h -60 z"
         style="fill:#000000;fill-opacity:0.14473703;fill-rule:nonzero;stroke:none"
         id="path34"
         inkscape:connector-curvature="0" />
      <path
         d="m 22.5,82.633 h 60 v 60 h -60 z"
         style="fill:#000000;fill-opacity:0.14473703;fill-rule:nonzero;stroke:none"
         id="path36"
         inkscape:connector-curvature="0" />
      <path
         d="m 82.5,202.633 h 60 v 60 h -60 z"
         style="fill:#000000;fill-opacity:0.14473703;fill-rule:nonzero;stroke:none"
         id="path38"
         inkscape:connector-curvature="0" />
      <path
         d="m 202.5,22.633 h 60 v 60 h -60 z"
         style="fill:#000000;fill-opacity:0.14473703;fill-rule:nonzero;stroke:none"
         id="path40"
         inkscape:connector-curvature="0" />
      <path
         d="m 142.5,202.633 h 60 v 60 h -60 z"
         style="fill:#000000;fill-opacity:0.14473703;fill-rule:nonzero;stroke:none"
         id="path42"
         inkscape:connector-curvature="0" />
      <path
         d="m 202.5,142.633 h 60 v 60 h -60 z"
         style="fill:#000000;fill-opacity:0.14473703;fill-rule:nonzero;stroke:none"
         id="path44"
         inkscape:connector-curvature="0" />
    </g>
    <g
       id="g1116"
       transform="matrix(0.35277777,0,0,0.35277777,12.735701,102.79563)">
      <path
         d="m 142.5,82.633 h 60 v 60 h -60 z"
         style="fill:#000000;fill-opacity:0.42763199;fill-rule:nonzero;stroke:none"
         id="path46"
         inkscape:connector-curvature="0" />
      <path
         d="m 202.5,82.633 h 60 v 60 h -60 z"
         style="fill:#000000;fill-opacity:0.42763199;fill-rule:nonzero;stroke:none"
         id="path48"
         inkscape:connector-curvature="0" />
      <path
         d="m 142.5,142.633 h 60 v 60 h -60 z"
         style="fill:#000000;fill-opacity:0.42763199;fill-rule:nonzero;stroke:none"
         id="path50"
         inkscape:connector-curvature="0" />
      <path
         d="m 82.5,142.633 h 60 v 60 h -60 z"
         style="fill:#000000;fill-opacity:0.42763199;fill-rule:nonzero;stroke:none"
         id="path52"
         inkscape:connector-curvature="0" />
    </g>
    <g
       id="g1143"
       transform="matrix(0.35277777,0,0,0.35277777,12.735701,102.79563)">
      <path
         inkscape:connector-curvature="0"
         id="path56"
         style="fill:none;stroke:#000000;stroke-width:0.75;stroke-linecap:butt;stroke-linejoin:miter;stroke-miterlimit:4;stroke-dasharray:none;stroke-opacity:1"
         d="M 0,142.633 H 345" />
      <path
         inkscape:connector-curvature="0"
         id="path60"
         style="fill:none;stroke:#000000;stroke-width:0.75;stroke-linecap:butt;stroke-linejoin:miter;stroke-miterlimit:4;stroke-dasharray:none;stroke-opacity:1"
         d="M 142.5,0 V 345" />
      <path
         inkscape:connector-curvature="0"
         id="path64"
         style="fill:none;stroke:#000000;stroke-width:0.75;stroke-linecap:butt;stroke-linejoin:miter;stroke-miterlimit:4;stroke-dasharray:none;stroke-opacity:1"
         d="M 0,262.633 H 345" />
      <path
         inkscape:connector-curvature="0"
         id="path68"
         style="fill:none;stroke:#000000;stroke-width:0.75;stroke-linecap:butt;stroke-linejoin:miter;stroke-miterlimit:4;stroke-dasharray:none;stroke-opacity:1"
         d="M 0,22.633 H 345" />
      <path
         inkscape:connector-curvature="0"
         id="path72"
         style="fill:none;stroke:#000000;stroke-width:0.75;stroke-linecap:butt;stroke-linejoin:miter;stroke-miterlimit:4;stroke-dasharray:none;stroke-opacity:1"
         d="M 262.5,0 V 345" />
      <path
         inkscape:connector-curvature="0"
         id="path76"
         style="fill:none;stroke:#000000;stroke-width:0.75;stroke-linecap:butt;stroke-linejoin:miter;stroke-miterlimit:4;stroke-dasharray:none;stroke-opacity:1"
         d="M 22.5,0 V 345" />
      <path
         inkscape:connector-curvature="0"
         id="path80"
         style="fill:none;stroke:#000000;stroke-width:0.75;stroke-linecap:butt;stroke-linejoin:miter;stroke-miterlimit:4;stroke-dasharray:none;stroke-opacity:1"
         d="M 82.5,0 V 345" />
      <path
         inkscape:connector-curvature="0"
         id="path84"
         style="fill:none;stroke:#000000;stroke-width:0.75;stroke-linecap:butt;stroke-linejoin:miter;stroke-miterlimit:4;stroke-dasharray:none;stroke-opacity:1"
         d="M 202.5,0 V 345" />
      <path
         inkscape:connector-curvature="0"
         id="path88"
         style="fill:none;stroke:#000000;stroke-width:0.75;stroke-linecap:butt;stroke-linejoin:miter;stroke-miterlimit:4;stroke-dasharray:none;stroke-opacity:1"
         d="M 322.5,0 V 345" />
      <path
         inkscape:connector-curvature="0"
         id="path92"
         style="fill:none;stroke:#000000;stroke-width:0.75;stroke-linecap:butt;stroke-linejoin:miter;stroke-miterlimit:4;stroke-dasharray:none;stroke-opacity:1"
         d="M 0,202.633 H 345" />
      <path
         inkscape:connector-curvature="0"
         id="path96"
         style="fill:none;stroke:#000000;stroke-width:0.75;stroke-linecap:butt;stroke-linejoin:miter;stroke-miterlimit:4;stroke-dasharray:none;stroke-opacity:1"
         d="M 0,322.633 H 345" />
      <path
         inkscape:connector-curvature="0"
         id="path100"
         style="fill:none;stroke:#000000;stroke-width:0.75;stroke-linecap:butt;stroke-linejoin:miter;stroke-miterlimit:4;stroke-dasharray:none;stroke-opacity:1"
         d="M 0,82.633 H 345" />
    </g>
    <path
       d="m 94.756526,121.36337 c -31.74999,0 -37.53484,4.54484 -42.33333,10.58334 -4.79848,6.03849 0.82974,7.98441 -21.16666,21.16666 -21.9964025,13.18225 0,31.75 10.58333,31.75 10.58333,0 18.22027,23.76559 28.00985,19.26767 17.85126,-18.48768 34.400064,-35.79883 43.127074,-56.09167 1.75013,-10.49796 2.38125,-16.93333 -0.79375,-21.43125 -3.175,-4.49792 -17.426514,-5.24475 -17.426514,-5.24475 z"
       style="fill:none;stroke:#00c800;stroke-width:0.80000013;stroke-linecap:butt;stroke-linejoin:miter;stroke-miterlimit:4;stroke-dasharray:none;stroke-opacity:1"
       id="path148"
       inkscape:connector-curvature="0" />
    <g
       id="g1129"
       transform="matrix(0.35277777,0,0,0.35277777,12.735701,102.79563)">
      <path
         inkscape:connector-curvature="0"
         id="path104"
         style="fill:#ff0000;fill-opacity:1;fill-rule:nonzero;stroke:#ff0300;stroke-width:1.70078695;stroke-linecap:butt;stroke-linejoin:miter;stroke-miterlimit:4;stroke-dasharray:none;stroke-opacity:1"
         d="m 207,142.633 c 0,2.484 -2.016,4.5 -4.5,4.5 -2.484,0 -4.5,-2.016 -4.5,-4.5 0,-2.485 2.016,-4.5 4.5,-4.5 2.484,0 4.5,2.015 4.5,4.5 z" />
      <path
         inkscape:connector-curvature="0"
         id="path108"
         style="fill:#ff0000;fill-opacity:1;fill-rule:nonzero;stroke:#ff0300;stroke-width:1.70078695;stroke-linecap:butt;stroke-linejoin:miter;stroke-miterlimit:4;stroke-dasharray:none;stroke-opacity:1"
         d="m 207,82.633 c 0,2.484 -2.016,4.5 -4.5,4.5 -2.484,0 -4.5,-2.016 -4.5,-4.5 0,-2.485 2.016,-4.5 4.5,-4.5 2.484,0 4.5,2.015 4.5,4.5 z" />
      <path
         inkscape:connector-curvature="0"
         id="path112"
         style="fill:#ff0000;fill-opacity:1;fill-rule:nonzero;stroke:#ff0300;stroke-width:1.70078695;stroke-linecap:butt;stroke-linejoin:miter;stroke-miterlimit:4;stroke-dasharray:none;stroke-opacity:1"
         d="m 147,82.633 c 0,2.484 -2.016,4.5 -4.5,4.5 -2.484,0 -4.5,-2.016 -4.5,-4.5 0,-2.485 2.016,-4.5 4.5,-4.5 2.484,0 4.5,2.015 4.5,4.5 z" />
      <path
         inkscape:connector-curvature="0"
         id="path116"
         style="fill:#ff0000;fill-opacity:1;fill-rule:nonzero;stroke:#ff0300;stroke-width:1.70078695;stroke-linecap:butt;stroke-linejoin:miter;stroke-miterlimit:4;stroke-dasharray:none;stroke-opacity:1"
         d="m 87,142.633 c 0,2.484 -2.016,4.5 -4.5,4.5 -2.484,0 -4.5,-2.016 -4.5,-4.5 0,-2.485 2.016,-4.5 4.5,-4.5 2.484,0 4.5,2.015 4.5,4.5 z" />
      <path
         inkscape:connector-curvature="0"
         id="path120"
         style="fill:#ff0000;fill-opacity:1;fill-rule:nonzero;stroke:#ff0300;stroke-width:1.70078695;stroke-linecap:butt;stroke-linejoin:miter;stroke-miterlimit:4;stroke-dasharray:none;stroke-opacity:1"
         d="m 147,142.633 c 0,2.484 -2.016,4.5 -4.5,4.5 -2.484,0 -4.5,-2.016 -4.5,-4.5 0,-2.485 2.016,-4.5 4.5,-4.5 2.484,0 4.5,2.015 4.5,4.5 z" />
      <path
         inkscape:connector-curvature="0"
         id="path124"
         style="fill:#ff0000;fill-opacity:1;fill-rule:nonzero;stroke:#ff0300;stroke-width:1.70078695;stroke-linecap:butt;stroke-linejoin:miter;stroke-miterlimit:4;stroke-dasharray:none;stroke-opacity:1"
         d="m 267,82.633 c 0,2.484 -2.016,4.5 -4.5,4.5 -2.484,0 -4.5,-2.016 -4.5,-4.5 0,-2.485 2.016,-4.5 4.5,-4.5 2.484,0 4.5,2.015 4.5,4.5 z" />
      <path
         inkscape:connector-curvature="0"
         id="path128"
         style="fill:#ff0000;fill-opacity:1;fill-rule:nonzero;stroke:#ff0300;stroke-width:1.70078695;stroke-linecap:butt;stroke-linejoin:miter;stroke-miterlimit:4;stroke-dasharray:none;stroke-opacity:1"
         d="m 207,202.633 c 0,2.484 -2.016,4.5 -4.5,4.5 -2.484,0 -4.5,-2.016 -4.5,-4.5 0,-2.485 2.016,-4.5 4.5,-4.5 2.484,0 4.5,2.015 4.5,4.5 z" />
      <path
         inkscape:connector-curvature="0"
         id="path132"
         style="fill:#ff0000;fill-opacity:1;fill-rule:nonzero;stroke:#ff0300;stroke-width:1.70078695;stroke-linecap:butt;stroke-linejoin:miter;stroke-miterlimit:4;stroke-dasharray:none;stroke-opacity:1"
         d="m 147,202.633 c 0,2.484 -2.016,4.5 -4.5,4.5 -2.484,0 -4.5,-2.016 -4.5,-4.5 0,-2.485 2.016,-4.5 4.5,-4.5 2.484,0 4.5,2.015 4.5,4.5 z" />
      <path
         inkscape:connector-curvature="0"
         id="path136"
         style="fill:#ff0000;fill-opacity:1;fill-rule:nonzero;stroke:#ff0300;stroke-width:1.70078695;stroke-linecap:butt;stroke-linejoin:miter;stroke-miterlimit:4;stroke-dasharray:none;stroke-opacity:1"
         d="m 87,202.633 c 0,2.484 -2.016,4.5 -4.5,4.5 -2.484,0 -4.5,-2.016 -4.5,-4.5 0,-2.485 2.016,-4.5 4.5,-4.5 2.484,0 4.5,2.015 4.5,4.5 z" />
      <path
         inkscape:connector-curvature="0"
         id="path152"
         style="fill:#ff0000;fill-opacity:1;fill-rule:nonzero;stroke:#ff0300;stroke-width:1.70078695;stroke-linecap:butt;stroke-linejoin:miter;stroke-miterlimit:4;stroke-dasharray:none;stroke-opacity:1"
         d="m 147,262.633 c 0,2.484 -2.016,4.5 -4.5,4.5 -2.484,0 -4.5,-2.016 -4.5,-4.5 0,-2.485 2.016,-4.5 4.5,-4.5 2.484,0 4.5,2.015 4.5,4.5 z" />
      <path
         inkscape:connector-curvature="0"
         id="path156"
         style="fill:#ff0000;fill-opacity:1;fill-rule:nonzero;stroke:#ff0300;stroke-width:1.70078695;stroke-linecap:butt;stroke-linejoin:miter;stroke-miterlimit:4;stroke-dasharray:none;stroke-opacity:1"
         d="m 267,142.633 c 0,2.484 -2.016,4.5 -4.5,4.5 -2.484,0 -4.5,-2.016 -4.5,-4.5 0,-2.485 2.016,-4.5 4.5,-4.5 2.484,0 4.5,2.015 4.5,4.5 z" />
    </g>
    <g
       id="g4799">
      <g
         transform="matrix(0.881945,0,0,0.881945,34.224983,19.910373)"
         ns1:version="0.8.1"
         ns1:texconverter="pdflatex"
         ns1:pdfconverter="pdf2svg"
         ns1:text="$\\mathcal{J}$"
         ns1:preamble="/home/paulie/.config/inkscape/extensions/default_packages.tex"
         ns1:scale="2.5"
         ns1:alignment="middle center"
         inkscapeversion="0.92.3"
         ns1:jacobian_sqrt="0.881945"
         id="g7109">
        <g
           id="surface1">
          <g
             style="fill:#000000;fill-opacity:1"
             id="g7106">
            <path
               inkscape:connector-curvature="0"
               style="stroke:none;stroke-width:0"
               d="m 6.125,-6.8125 c -0.953125,0 -1.78125,0.46875 -2.234375,0.796875 C 2.796875,-5.25 2.6875,-4.40625 2.6875,-4.390625 c 0,0.078125 0.046875,0.078125 0.09375,0.078125 0.234375,0 0.671875,-0.28125 0.734375,-0.46875 C 3.84375,-5.828125 4.5625,-6.265625 5.546875,-6.265625 H 6.875 C 5.765625,-5.390625 5.3125,-3.875 4.65625,-1.28125 4.421875,-0.359375 3.8125,0.640625 2.796875,0.640625 2.03125,0.640625 1.3125,0.125 1.3125,-0.75 c 0,-0.203125 0.046875,-0.359375 0.046875,-0.40625 0,-0.03125 0,-0.09375 -0.09375,-0.09375 -0.0625,0 -0.28125,0.046875 -0.5625,0.265625 -0.125,0.09375 -0.234375,0.1875 -0.234375,0.65625 0,0.921875 0.703125,1.515625 1.671875,1.515625 0.84375,0 1.65625,-0.484375 2.140625,-0.890625 C 5.203125,-0.5 5.390625,-1.21875 5.5625,-1.9375 5.9375,-3.375 6.40625,-5.1875 7.15625,-6.03125 7.3125,-6.203125 7.359375,-6.234375 7.59375,-6.265625 8.03125,-6.296875 8.375,-6.625 8.375,-6.734375 8.375,-6.796875 8.359375,-6.8125 8.140625,-6.8125 Z m 0,0"
               transform="translate(148.712,134.765)"
               id="path7104" />
          </g>
        </g>
      </g>
      <circle
         r="1.5875"
         cy="136.28522"
         cx="153.56715"
         id="path4638-6-6"
         style="fill:#ff0000;fill-opacity:1;stroke:#ff0300;stroke-width:0.60000002;stroke-miterlimit:4;stroke-dasharray:none;stroke-opacity:1" />
    </g>
    <g
       id="g4811">
      <rect
         y="147.52322"
         x="147.84813"
         height="11.438029"
         width="11.438044"
         id="rect6454-69-5"
         style="fill:#000000;fill-opacity:0.14473685;stroke:none;stroke-width:0.5;stroke-miterlimit:4;stroke-dasharray:none;stroke-opacity:1" />
      <g
         id="g1582"
         ns1:jacobian_sqrt="0.881945"
         inkscapeversion="0.92.3"
         ns1:alignment="middle center"
         ns1:scale="2.49999997165"
         ns1:preamble="/home/paulie/.config/inkscape/extensions/default_packages.tex"
         ns1:text="not PU"
         ns1:pdfconverter="pdf2svg"
         ns1:texconverter="pdflatex"
         ns1:version="0.8.1"
         transform="matrix(0.881945,0,0,0.881945,34.362787,37.294588)">
        <g
           id="g1580">
          <g
             id="g1572"
             style="fill:#000000;fill-opacity:1">
            <path
               id="path1566"
               transform="translate(148.712,134.765)"
               d="M 1.09375,-3.421875 V -0.75 c 0,0.4375 -0.109375,0.4375 -0.78125,0.4375 V 0 c 0.359375,-0.015625 0.859375,-0.03125 1.140625,-0.03125 0.25,0 0.765625,0.015625 1.109375,0.03125 v -0.3125 c -0.671875,0 -0.78125,0 -0.78125,-0.4375 V -2.59375 C 1.78125,-3.625 2.5,-4.1875 3.125,-4.1875 c 0.640625,0 0.75,0.53125 0.75,1.109375 V -0.75 c 0,0.4375 -0.109375,0.4375 -0.78125,0.4375 V 0 c 0.34375,-0.015625 0.859375,-0.03125 1.125,-0.03125 0.25,0 0.78125,0.015625 1.109375,0.03125 v -0.3125 c -0.515625,0 -0.765625,0 -0.765625,-0.296875 v -1.90625 c 0,-0.859375 0,-1.15625 -0.3125,-1.515625 -0.140625,-0.171875 -0.46875,-0.375 -1.046875,-0.375 C 2.46875,-4.40625 2,-3.984375 1.71875,-3.359375 V -4.40625 L 0.3125,-4.296875 v 0.3125 c 0.703125,0 0.78125,0.0625 0.78125,0.5625 z m 0,0"
               style="stroke:none;stroke-width:0"
               inkscape:connector-curvature="0" />
            <path
               id="path1568"
               transform="translate(154.24722,134.765)"
               d="M 4.6875,-2.140625 C 4.6875,-3.40625 3.703125,-4.46875 2.5,-4.46875 c -1.25,0 -2.21875,1.09375 -2.21875,2.328125 0,1.296875 1.03125,2.25 2.203125,2.25 1.203125,0 2.203125,-0.984375 2.203125,-2.25 z m -2.1875,2 c -0.4375,0 -0.875,-0.203125 -1.140625,-0.671875 -0.25,-0.4375 -0.25,-1.046875 -0.25,-1.40625 0,-0.390625 0,-0.921875 0.234375,-1.359375 C 1.609375,-4.03125 2.078125,-4.25 2.484375,-4.25 c 0.4375,0 0.859375,0.21875 1.125,0.65625 0.265625,0.421875 0.265625,1 0.265625,1.375 0,0.359375 0,0.90625 -0.21875,1.34375 C 3.421875,-0.421875 2.984375,-0.140625 2.5,-0.140625 Z m 0,0"
               style="stroke:none;stroke-width:0"
               inkscape:connector-curvature="0" />
            <path
               id="path1570"
               transform="translate(159.22852,134.765)"
               d="m 1.71875,-3.984375 h 1.4375 v -0.3125 H 1.71875 V -6.125 h -0.25 c 0,0.8125 -0.296875,1.875 -1.28125,1.921875 v 0.21875 h 0.84375 v 2.75 c 0,1.21875 0.9375,1.34375 1.296875,1.34375 0.703125,0 0.984375,-0.703125 0.984375,-1.34375 v -0.5625 h -0.25 V -1.25 c 0,0.734375 -0.296875,1.109375 -0.671875,1.109375 -0.671875,0 -0.671875,-0.90625 -0.671875,-1.078125 z m 0,0"
               style="stroke:none;stroke-width:0"
               inkscape:connector-curvature="0" />
          </g>
          <g
             id="g1578"
             style="fill:#000000;fill-opacity:1">
            <path
               id="path1574"
               transform="translate(166.42052,134.765)"
               d="m 2.265625,-3.15625 h 1.6875 c 1.1875,0 2.265625,-0.796875 2.265625,-1.796875 C 6.21875,-5.9375 5.234375,-6.8125 3.875,-6.8125 H 0.34375 V -6.5 h 0.25 c 0.765625,0 0.78125,0.109375 0.78125,0.46875 v 5.25 c 0,0.359375 -0.015625,0.46875 -0.78125,0.46875 h -0.25 V 0 c 0.359375,-0.03125 1.09375,-0.03125 1.46875,-0.03125 0.375,0 1.125,0 1.484375,0.03125 v -0.3125 h -0.25 c -0.765625,0 -0.78125,-0.109375 -0.78125,-0.46875 z m -0.03125,-0.25 v -2.6875 C 2.234375,-6.4375 2.25,-6.5 2.71875,-6.5 h 0.890625 c 1.578125,0 1.578125,1.0625 1.578125,1.546875 0,0.46875 0,1.546875 -1.578125,1.546875 z m 0,0"
               style="stroke:none;stroke-width:0"
               inkscape:connector-curvature="0" />
            <path
               id="path1576"
               transform="translate(173.20107,134.765)"
               d="m 5.796875,-2.296875 c 0,1.40625 -0.96875,2.203125 -1.90625,2.203125 -0.46875,0 -1.640625,-0.25 -1.640625,-2.140625 V -6.03125 C 2.25,-6.390625 2.265625,-6.5 3.03125,-6.5 h 0.234375 v -0.3125 c -0.34375,0.03125 -1.078125,0.03125 -1.46875,0.03125 -0.375,0 -1.125,0 -1.46875,-0.03125 V -6.5 H 0.5625 c 0.765625,0 0.796875,0.109375 0.796875,0.46875 v 3.765625 c 0,1.390625 1.15625,2.484375 2.515625,2.484375 1.140625,0 2.03125,-0.921875 2.203125,-2.0625 0.03125,-0.203125 0.03125,-0.296875 0.03125,-0.6875 v -3.1875 c 0,-0.328125 0,-0.78125 1.03125,-0.78125 v -0.3125 c -0.359375,0.015625 -0.84375,0.03125 -1.171875,0.03125 -0.359375,0 -0.828125,-0.015625 -1.1875,-0.03125 V -6.5 c 1.015625,0 1.015625,0.46875 1.015625,0.734375 z m 0,0"
               style="stroke:none;stroke-width:0"
               inkscape:connector-curvature="0" />
          </g>
        </g>
      </g>
    </g>
    <g
       id="g4826">
      <path
         inkscape:connector-curvature="0"
         id="path176"
         style="fill:none;stroke:#00c800;stroke-width:0.80000013;stroke-linecap:butt;stroke-linejoin:miter;stroke-miterlimit:4;stroke-dasharray:none;stroke-opacity:1"
         d="m 147.84827,191.53803 h 11.43776" />
      <g
         id="g2008"
         ns1:jacobian_sqrt="0.881945"
         inkscapeversion="0.92.3"
         ns1:alignment="middle center"
         ns1:scale="2.49999991495"
         ns1:preamble="/home/paulie/.config/inkscape/extensions/default_packages.tex"
         ns1:text="$Z$"
         ns1:pdfconverter="pdf2svg"
         ns1:texconverter="pdflatex"
         ns1:version="0.8.1"
         transform="matrix(0.881945,0,0,0.881945,34.12852,75.686833)">
        <g
           id="g2006">
          <g
             id="g2004"
             style="fill:#000000;fill-opacity:1">
            <path
               id="path2002"
               transform="translate(148.712,134.765)"
               d="m 7.171875,-6.5625 c 0.015625,-0.046875 0.03125,-0.09375 0.03125,-0.15625 0,-0.09375 -0.046875,-0.09375 -0.25,-0.09375 H 2.75 c -0.234375,0 -0.25,0.015625 -0.3125,0.203125 L 1.890625,-4.8125 c -0.015625,0.046875 -0.03125,0.125 -0.03125,0.140625 0,0 0,0.109375 0.125,0.109375 0.09375,0 0.109375,-0.078125 0.125,-0.109375 C 2.5,-5.84375 3.015625,-6.5 4.5625,-6.5 h 1.625 L 0.625,-0.265625 c 0,0 -0.046875,0.140625 -0.046875,0.171875 C 0.578125,0 0.640625,0 0.828125,0 H 5.15625 c 0.25,0 0.25,-0.015625 0.3125,-0.203125 L 6.1875,-2.40625 c 0,-0.03125 0.03125,-0.109375 0.03125,-0.140625 0,-0.0625 -0.03125,-0.109375 -0.125,-0.109375 -0.09375,0 -0.109375,0.03125 -0.171875,0.25 C 5.484375,-1.0625 5,-0.34375 3.3125,-0.34375 H 1.609375 Z m 0,0"
               style="stroke:none;stroke-width:0"
               inkscape:connector-curvature="0" />
          </g>
        </g>
      </g>
    </g>
    <g
       id="g4819">
      <rect
         y="166.67148"
         x="147.84813"
         height="11.438029"
         width="11.438044"
         id="rect6454-69-5-1"
         style="fill:#000000;fill-opacity:0.42745098;stroke:none;stroke-width:0.5;stroke-miterlimit:4;stroke-dasharray:none;stroke-opacity:1" />
      <g
         transform="matrix(0.881945,0,0,0.881945,34.335226,56.442846)"
         ns1:version="0.8.1"
         ns1:texconverter="pdflatex"
         ns1:pdfconverter="pdf2svg"
         ns1:text="PU"
         ns1:preamble="/home/paulie/.config/inkscape/extensions/default_packages.tex"
         ns1:scale="2.4999999433"
         ns1:alignment="middle center"
         inkscapeversion="0.92.3"
         ns1:jacobian_sqrt="0.881945"
         id="g4710">
        <g
           id="g4708">
          <g
             style="fill:#000000;fill-opacity:1"
             id="g4706">
            <path
               inkscape:connector-curvature="0"
               style="stroke:none;stroke-width:0"
               d="m 2.265625,-3.15625 h 1.6875 c 1.1875,0 2.265625,-0.796875 2.265625,-1.796875 C 6.21875,-5.9375 5.234375,-6.8125 3.875,-6.8125 H 0.34375 V -6.5 h 0.25 c 0.765625,0 0.78125,0.109375 0.78125,0.46875 v 5.25 c 0,0.359375 -0.015625,0.46875 -0.78125,0.46875 h -0.25 V 0 c 0.359375,-0.03125 1.09375,-0.03125 1.46875,-0.03125 0.375,0 1.125,0 1.484375,0.03125 v -0.3125 h -0.25 c -0.765625,0 -0.78125,-0.109375 -0.78125,-0.46875 z m -0.03125,-0.25 v -2.6875 C 2.234375,-6.4375 2.25,-6.5 2.71875,-6.5 h 0.890625 c 1.578125,0 1.578125,1.0625 1.578125,1.546875 0,0.46875 0,1.546875 -1.578125,1.546875 z m 0,0"
               transform="translate(148.712,134.765)"
               id="path4702" />
            <path
               inkscape:connector-curvature="0"
               style="stroke:none;stroke-width:0"
               d="m 5.796875,-2.296875 c 0,1.40625 -0.96875,2.203125 -1.90625,2.203125 -0.46875,0 -1.640625,-0.25 -1.640625,-2.140625 V -6.03125 C 2.25,-6.390625 2.265625,-6.5 3.03125,-6.5 h 0.234375 v -0.3125 c -0.34375,0.03125 -1.078125,0.03125 -1.46875,0.03125 -0.375,0 -1.125,0 -1.46875,-0.03125 V -6.5 H 0.5625 c 0.765625,0 0.796875,0.109375 0.796875,0.46875 v 3.765625 c 0,1.390625 1.15625,2.484375 2.515625,2.484375 1.140625,0 2.03125,-0.921875 2.203125,-2.0625 0.03125,-0.203125 0.03125,-0.296875 0.03125,-0.6875 v -3.1875 c 0,-0.328125 0,-0.78125 1.03125,-0.78125 v -0.3125 c -0.359375,0.015625 -0.84375,0.03125 -1.171875,0.03125 -0.359375,0 -0.828125,-0.015625 -1.1875,-0.03125 V -6.5 c 1.015625,0 1.015625,0.46875 1.015625,0.734375 z m 0,0"
               transform="translate(155.49255,134.765)"
               id="path4704" />
          </g>
        </g>
      </g>
    </g>
  </g>
</svg>
