<?xml version="1.0" encoding="UTF-8" standalone="no"?>
<svg
   xmlns:ns1="http://www.iki.fi/pav/software/textext/"
   xmlns:dc="http://purl.org/dc/elements/1.1/"
   xmlns:cc="http://creativecommons.org/ns#"
   xmlns:rdf="http://www.w3.org/1999/02/22-rdf-syntax-ns#"
   xmlns:svg="http://www.w3.org/2000/svg"
   xmlns="http://www.w3.org/2000/svg"
   xmlns:sodipodi="http://sodipodi.sourceforge.net/DTD/sodipodi-0.dtd"
   xmlns:inkscape="http://www.inkscape.org/namespaces/inkscape"
   inkscape:version="0.92.3 (2405546, 2018-03-11)"
   sodipodi:docname="mh_dirichlet_inf-sup_ink.svg"
   id="svg294"
   xml:space="preserve"
   stroke-linejoin="round"
   stroke-width="28.222"
   version="1.1"
   viewBox="0 0 16000 9000"
   height="90mm"
   width="160mm"><sodipodi:namedview
   inkscape:current-layer="svg294"
   inkscape:window-maximized="1"
   inkscape:window-y="0"
   inkscape:window-x="1680"
   inkscape:cy="170.07874"
   inkscape:cx="290.91817"
   inkscape:zoom="1.7644401"
   showgrid="false"
   id="namedview296"
   inkscape:window-height="1022"
   inkscape:window-width="1680"
   inkscape:pageshadow="2"
   inkscape:pageopacity="0"
   guidetolerance="10"
   gridtolerance="10"
   objecttolerance="10"
   borderopacity="1"
   bordercolor="#666666"
   pagecolor="#ffffff" /><metadata
   id="metadata300"><rdf:RDF><cc:Work
       rdf:about=""><dc:format>image/svg+xml</dc:format><dc:type
         rdf:resource="http://purl.org/dc/dcmitype/StillImage" /><dc:title /></cc:Work></rdf:RDF></metadata><defs
   id="defs298" />
 
 <path
   fill="none"
   stroke="rgb(179,179,179)"
   stroke-linejoin="round"
   d="M 8806,7196 L 2034,7196 2034,1474 15579,1474 15579,7196 8806,7196 Z"
   id="path4" />
 <path
   fill="none"
   stroke="rgb(179,179,179)"
   stroke-linejoin="round"
   d="M 15579,7195 L 2034,7195"
   id="path6" />
 <path
   fill="none"
   stroke="rgb(179,179,179)"
   stroke-linejoin="round"
   d="M 15579,5287 L 2034,5287"
   id="path8" />
 <path
   fill="none"
   stroke="rgb(179,179,179)"
   stroke-linejoin="round"
   d="M 15579,3380 L 2034,3380"
   id="path10" />
 <path
   fill="none"
   stroke="rgb(179,179,179)"
   stroke-linejoin="round"
   d="M 15579,1473 L 2034,1473"
   id="path12" />
 <path
   fill="none"
   stroke="rgb(179,179,179)"
   stroke-linejoin="round"
   d="M 2034,7345 L 2034,7195"
   id="path14" />
 <path
   fill="none"
   stroke="rgb(179,179,179)"
   stroke-linejoin="round"
   d="M 2034,7345 L 2034,7195"
   id="path16" />
 <path
   fill="none"
   stroke="rgb(179,179,179)"
   stroke-linejoin="round"
   d="M 3388,7345 L 3388,7195"
   id="path18" />
 <path
   fill="none"
   stroke="rgb(179,179,179)"
   stroke-linejoin="round"
   d="M 3388,7345 L 3388,7195"
   id="path20" />
 <path
   fill="none"
   stroke="rgb(179,179,179)"
   stroke-linejoin="round"
   d="M 4743,7345 L 4743,7195"
   id="path22" />
 <path
   fill="none"
   stroke="rgb(179,179,179)"
   stroke-linejoin="round"
   d="M 4743,7345 L 4743,7195"
   id="path24" />
 <path
   fill="none"
   stroke="rgb(179,179,179)"
   stroke-linejoin="round"
   d="M 6097,7345 L 6097,7195"
   id="path26" />
 <path
   fill="none"
   stroke="rgb(179,179,179)"
   stroke-linejoin="round"
   d="M 6097,7345 L 6097,7195"
   id="path28" />
 <path
   fill="none"
   stroke="rgb(179,179,179)"
   stroke-linejoin="round"
   d="M 7452,7345 L 7452,7195"
   id="path30" />
 <path
   fill="none"
   stroke="rgb(179,179,179)"
   stroke-linejoin="round"
   d="M 7452,7345 L 7452,7195"
   id="path32" />
 <path
   fill="none"
   stroke="rgb(179,179,179)"
   stroke-linejoin="round"
   d="M 8806,7345 L 8806,7195"
   id="path34" />
 <path
   fill="none"
   stroke="rgb(179,179,179)"
   stroke-linejoin="round"
   d="M 8806,7345 L 8806,7195"
   id="path36" />
 <path
   fill="none"
   stroke="rgb(179,179,179)"
   stroke-linejoin="round"
   d="M 10160,7345 L 10160,7195"
   id="path38" />
 <path
   fill="none"
   stroke="rgb(179,179,179)"
   stroke-linejoin="round"
   d="M 10160,7345 L 10160,7195"
   id="path40" />
 <path
   fill="none"
   stroke="rgb(179,179,179)"
   stroke-linejoin="round"
   d="M 11515,7345 L 11515,7195"
   id="path42" />
 <path
   fill="none"
   stroke="rgb(179,179,179)"
   stroke-linejoin="round"
   d="M 11515,7345 L 11515,7195"
   id="path44" />
 <path
   fill="none"
   stroke="rgb(179,179,179)"
   stroke-linejoin="round"
   d="M 12869,7345 L 12869,7195"
   id="path46" />
 <path
   fill="none"
   stroke="rgb(179,179,179)"
   stroke-linejoin="round"
   d="M 12869,7345 L 12869,7195"
   id="path48" />
 <path
   fill="none"
   stroke="rgb(179,179,179)"
   stroke-linejoin="round"
   d="M 14224,7345 L 14224,7195"
   id="path50" />
 <path
   fill="none"
   stroke="rgb(179,179,179)"
   stroke-linejoin="round"
   d="M 14224,7345 L 14224,7195"
   id="path52" />
 <path
   fill="none"
   stroke="rgb(179,179,179)"
   stroke-linejoin="round"
   d="M 15579,7345 L 15579,7195"
   id="path54" />
 <path
   fill="none"
   stroke="rgb(179,179,179)"
   stroke-linejoin="round"
   d="M 15579,7345 L 15579,7195"
   id="path56" />
 <path
   fill="none"
   stroke="rgb(179,179,179)"
   stroke-linejoin="round"
   d="M 2034,7195 L 15579,7195"
   id="path58" />
 <path
   fill="none"
   stroke="rgb(179,179,179)"
   stroke-linejoin="round"
   d="M 1884,7195 L 2034,7195"
   id="path60" />
 <path
   fill="none"
   stroke="rgb(179,179,179)"
   stroke-linejoin="round"
   d="M 1884,7195 L 2034,7195"
   id="path62" />
 <path
   fill="none"
   stroke="rgb(179,179,179)"
   stroke-linejoin="round"
   d="M 1884,5287 L 2034,5287"
   id="path64" />
 <path
   fill="none"
   stroke="rgb(179,179,179)"
   stroke-linejoin="round"
   d="M 1884,5287 L 2034,5287"
   id="path66" />
 <path
   fill="none"
   stroke="rgb(179,179,179)"
   stroke-linejoin="round"
   d="M 1884,3380 L 2034,3380"
   id="path68" />
 <path
   fill="none"
   stroke="rgb(179,179,179)"
   stroke-linejoin="round"
   d="M 1884,3380 L 2034,3380"
   id="path70" />
 <path
   fill="none"
   stroke="rgb(179,179,179)"
   stroke-linejoin="round"
   d="M 1884,1473 L 2034,1473"
   id="path72" />
 <path
   fill="none"
   stroke="rgb(179,179,179)"
   stroke-linejoin="round"
   d="M 1884,1473 L 2034,1473"
   id="path74" />
 <path
   fill="none"
   stroke="rgb(179,179,179)"
   stroke-linejoin="round"
   d="M 2034,7195 L 2034,1473"
   id="path76" />
 <path
   fill="none"
   stroke="rgb(255,66,14)"
   stroke-width="80"
   stroke-linejoin="round"
   d="M 14006,4831 L 8019,4809 5027,4803 3530,4802 2782,4802"
   id="path78" />
 <path
   fill="rgb(255,66,14)"
   stroke="none"
   d="M 13881,4831 L 14006,4956 14131,4831 14006,4706 13881,4831 Z"
   id="path80" />
 <path
   fill="none"
   stroke="rgb(255,66,14)"
   stroke-linejoin="round"
   d="M 13881,4831 L 14006,4956 14131,4831 14006,4706 13881,4831 Z"
   id="path82" />
 <path
   fill="rgb(255,66,14)"
   stroke="none"
   d="M 7895,4809 L 8019,4934 8144,4809 8019,4684 7895,4809 Z"
   id="path84" />
 <path
   fill="none"
   stroke="rgb(255,66,14)"
   stroke-linejoin="round"
   d="M 7895,4809 L 8019,4934 8144,4809 8019,4684 7895,4809 Z"
   id="path86" />
 <path
   fill="rgb(255,66,14)"
   stroke="none"
   d="M 4902,4803 L 5027,4928 5152,4803 5027,4678 4902,4803 Z"
   id="path88" />
 <path
   fill="none"
   stroke="rgb(255,66,14)"
   stroke-linejoin="round"
   d="M 4902,4803 L 5027,4928 5152,4803 5027,4678 4902,4803 Z"
   id="path90" />
 <path
   fill="rgb(255,66,14)"
   stroke="none"
   d="M 3405,4802 L 3530,4927 3655,4802 3530,4677 3405,4802 Z"
   id="path92" />
 <path
   fill="none"
   stroke="rgb(255,66,14)"
   stroke-linejoin="round"
   d="M 3405,4802 L 3530,4927 3655,4802 3530,4677 3405,4802 Z"
   id="path94" />
 <path
   fill="rgb(255,66,14)"
   stroke="none"
   d="M 2657,4802 L 2782,4927 2907,4802 2782,4677 2657,4802 Z"
   id="path96" />
 <path
   fill="none"
   stroke="rgb(255,66,14)"
   stroke-linejoin="round"
   d="M 2657,4802 L 2782,4927 2907,4802 2782,4677 2657,4802 Z"
   id="path98" />
 <path
   fill="none"
   stroke="rgb(0,69,134)"
   stroke-width="80"
   stroke-linejoin="round"
   d="M 14006,4960 L 8019,4451 5027,4342 3530,4335 2782,4325"
   id="path100" />
 <path
   fill="rgb(0,69,134)"
   stroke="none"
   d="M 13881,4835 L 13881,5085 14131,5085 14131,4835 13881,4835 Z"
   id="path102" />
 <path
   fill="none"
   stroke="rgb(0,69,134)"
   stroke-linejoin="round"
   d="M 13881,4835 L 13881,5085 14131,5085 14131,4835 13881,4835 Z"
   id="path104" />
 <path
   fill="rgb(0,69,134)"
   stroke="none"
   d="M 7895,4326 L 7895,4575 8144,4575 8144,4326 7895,4326 Z"
   id="path106" />
 <path
   fill="none"
   stroke="rgb(0,69,134)"
   stroke-linejoin="round"
   d="M 7895,4326 L 7895,4575 8144,4575 8144,4326 7895,4326 Z"
   id="path108" />
 <path
   fill="rgb(0,69,134)"
   stroke="none"
   d="M 4902,4217 L 4902,4467 5152,4467 5152,4217 4902,4217 Z"
   id="path110" />
 <path
   fill="none"
   stroke="rgb(0,69,134)"
   stroke-linejoin="round"
   d="M 4902,4217 L 4902,4467 5152,4467 5152,4217 4902,4217 Z"
   id="path112" />
 <path
   fill="rgb(0,69,134)"
   stroke="none"
   d="M 3405,4210 L 3405,4460 3655,4460 3655,4210 3405,4210 Z"
   id="path114" />
 <path
   fill="none"
   stroke="rgb(0,69,134)"
   stroke-linejoin="round"
   d="M 3405,4210 L 3405,4460 3655,4460 3655,4210 3405,4210 Z"
   id="path116" />
 <path
   fill="rgb(0,69,134)"
   stroke="none"
   d="M 2657,4200 L 2657,4450 2907,4450 2907,4200 2657,4200 Z"
   id="path118" />
 <path
   fill="none"
   stroke="rgb(0,69,134)"
   stroke-linejoin="round"
   d="M 2657,4200 L 2657,4450 2907,4450 2907,4200 2657,4200 Z"
   id="path120" />
 <text
   class="TextShape"
   id="text128"><tspan
     class="TextParagraph"
     font-family="Liberation Sans, sans-serif"
     font-size="353px"
     font-weight="400"
     id="tspan126"><tspan
       class="TextPosition"
       x="1941"
       y="7763"
       id="tspan124"><tspan
         fill="rgb(0,0,0)"
         stroke="none"
         id="tspan122">0</tspan></tspan></tspan></text>













 <text
   class="TextShape"
   id="text136"><tspan
     class="TextParagraph"
     font-family="Liberation Sans, sans-serif"
     font-size="353px"
     font-weight="400"
     id="tspan134"><tspan
       class="TextPosition"
       x="3150"
       y="7763"
       id="tspan132"><tspan
         fill="rgb(0,0,0)"
         stroke="none"
         id="tspan130">0.2</tspan></tspan></tspan></text>













 <text
   class="TextShape"
   id="text144"><tspan
     class="TextParagraph"
     font-family="Liberation Sans, sans-serif"
     font-size="353px"
     font-weight="400"
     id="tspan142"><tspan
       class="TextPosition"
       x="4505"
       y="7763"
       id="tspan140"><tspan
         fill="rgb(0,0,0)"
         stroke="none"
         id="tspan138">0.4</tspan></tspan></tspan></text>













 <text
   class="TextShape"
   id="text152"><tspan
     class="TextParagraph"
     font-family="Liberation Sans, sans-serif"
     font-size="353px"
     font-weight="400"
     id="tspan150"><tspan
       class="TextPosition"
       x="5859"
       y="7763"
       id="tspan148"><tspan
         fill="rgb(0,0,0)"
         stroke="none"
         id="tspan146">0.6</tspan></tspan></tspan></text>













 <text
   class="TextShape"
   id="text160"><tspan
     class="TextParagraph"
     font-family="Liberation Sans, sans-serif"
     font-size="353px"
     font-weight="400"
     id="tspan158"><tspan
       class="TextPosition"
       x="7214"
       y="7763"
       id="tspan156"><tspan
         fill="rgb(0,0,0)"
         stroke="none"
         id="tspan154">0.8</tspan></tspan></tspan></text>













 <text
   class="TextShape"
   id="text168"><tspan
     class="TextParagraph"
     font-family="Liberation Sans, sans-serif"
     font-size="353px"
     font-weight="400"
     id="tspan166"><tspan
       class="TextPosition"
       x="8714"
       y="7763"
       id="tspan164"><tspan
         fill="rgb(0,0,0)"
         stroke="none"
         id="tspan162">1</tspan></tspan></tspan></text>













 <text
   class="TextShape"
   id="text176"><tspan
     class="TextParagraph"
     font-family="Liberation Sans, sans-serif"
     font-size="353px"
     font-weight="400"
     id="tspan174"><tspan
       class="TextPosition"
       x="9923"
       y="7763"
       id="tspan172"><tspan
         fill="rgb(0,0,0)"
         stroke="none"
         id="tspan170">1.2</tspan></tspan></tspan></text>













 <text
   class="TextShape"
   id="text184"><tspan
     class="TextParagraph"
     font-family="Liberation Sans, sans-serif"
     font-size="353px"
     font-weight="400"
     id="tspan182"><tspan
       class="TextPosition"
       x="11278"
       y="7763"
       id="tspan180"><tspan
         fill="rgb(0,0,0)"
         stroke="none"
         id="tspan178">1.4</tspan></tspan></tspan></text>













 <text
   class="TextShape"
   id="text192"><tspan
     class="TextParagraph"
     font-family="Liberation Sans, sans-serif"
     font-size="353px"
     font-weight="400"
     id="tspan190"><tspan
       class="TextPosition"
       x="12632"
       y="7763"
       id="tspan188"><tspan
         fill="rgb(0,0,0)"
         stroke="none"
         id="tspan186">1.6</tspan></tspan></tspan></text>













 <text
   class="TextShape"
   id="text200"><tspan
     class="TextParagraph"
     font-family="Liberation Sans, sans-serif"
     font-size="353px"
     font-weight="400"
     id="tspan198"><tspan
       class="TextPosition"
       x="13987"
       y="7763"
       id="tspan196"><tspan
         fill="rgb(0,0,0)"
         stroke="none"
         id="tspan194">1.8</tspan></tspan></tspan></text>













 <text
   class="TextShape"
   id="text208"><tspan
     class="TextParagraph"
     font-family="Liberation Sans, sans-serif"
     font-size="353px"
     font-weight="400"
     id="tspan206"><tspan
       class="TextPosition"
       x="15487"
       y="7763"
       id="tspan204"><tspan
         fill="rgb(0,0,0)"
         stroke="none"
         id="tspan202">2</tspan></tspan></tspan></text>













 <text
   class="TextShape"
   id="text216"><tspan
     class="TextParagraph"
     font-family="Liberation Sans, sans-serif"
     font-size="353px"
     font-weight="400"
     id="tspan214"><tspan
       class="TextPosition"
       x="1599"
       y="7316"
       id="tspan212"><tspan
         fill="rgb(0,0,0)"
         stroke="none"
         id="tspan210">0</tspan></tspan></tspan></text>













 <text
   class="TextShape"
   id="text224"><tspan
     class="TextParagraph"
     font-family="Liberation Sans, sans-serif"
     font-size="353px"
     font-weight="400"
     id="tspan222"><tspan
       class="TextPosition"
       x="1308"
       y="5408"
       id="tspan220"><tspan
         fill="rgb(0,0,0)"
         stroke="none"
         id="tspan218">0.1</tspan></tspan></tspan></text>













 <text
   class="TextShape"
   id="text232"><tspan
     class="TextParagraph"
     font-family="Liberation Sans, sans-serif"
     font-size="353px"
     font-weight="400"
     id="tspan230"><tspan
       class="TextPosition"
       x="1308"
       y="3500"
       id="tspan228"><tspan
         fill="rgb(0,0,0)"
         stroke="none"
         id="tspan226">0.2</tspan></tspan></tspan></text>













 <text
   class="TextShape"
   id="text240"><tspan
     class="TextParagraph"
     font-family="Liberation Sans, sans-serif"
     font-size="353px"
     font-weight="400"
     id="tspan238"><tspan
       class="TextPosition"
       x="1308"
       y="1593"
       id="tspan236"><tspan
         fill="rgb(0,0,0)"
         stroke="none"
         id="tspan234">0.3</tspan></tspan></tspan></text>













 
 <path
   fill="none"
   stroke="rgb(0,69,134)"
   stroke-width="80"
   stroke-linejoin="round"
   d="M 11996,1774 L 12796,1774"
   id="path250" />
 <path
   fill="rgb(0,69,134)"
   stroke="none"
   d="M 12290,1669 L 12290,1880 12501,1880 12501,1669 12290,1669 Z"
   id="path252" />
 <path
   fill="none"
   stroke="rgb(0,69,134)"
   stroke-linejoin="round"
   d="M 12290,1669 L 12290,1880 12501,1880 12501,1669 12290,1669 Z"
   id="path254" />
 <path
   fill="none"
   stroke="rgb(255,66,14)"
   stroke-width="80"
   stroke-linejoin="round"
   d="M 11996,2272 L 12796,2272"
   id="path256" />
 <path
   fill="rgb(255,66,14)"
   stroke="none"
   d="M 12290,2272 L 12396,2378 12501,2272 12396,2167 12290,2272 Z"
   id="path258" />
 <path
   fill="none"
   stroke="rgb(255,66,14)"
   stroke-linejoin="round"
   d="M 12290,2272 L 12396,2378 12501,2272 12396,2167 12290,2272 Z"
   id="path260" />
 <text
   class="TextShape"
   id="text268"><tspan
     class="TextParagraph"
     font-family="Liberation Sans, sans-serif"
     font-size="353px"
     font-weight="400"
     id="tspan266"><tspan
       class="TextPosition"
       x="12896"
       y="1894"
       id="tspan264"><tspan
         fill="rgb(0,0,0)"
         stroke="none"
         id="tspan262">singular case</tspan></tspan></tspan></text>













 <text
   class="TextShape"
   id="text276"><tspan
     class="TextParagraph"
     font-family="Liberation Sans, sans-serif"
     font-size="353px"
     font-weight="400"
     id="tspan274"><tspan
       class="TextPosition"
       x="12896"
       y="2392"
       id="tspan272"><tspan
         fill="rgb(0,0,0)"
         stroke="none"
         id="tspan270">regular case</tspan></tspan></tspan></text>













 

 



<g
   transform="matrix(53.33332,0,0,53.33332,724.77869,1339.6433)"
   ns1:version="0.8.1"
   ns1:texconverter="pdflatex"
   ns1:pdfconverter="pdf2svg"
   ns1:text="h"
   ns1:preamble="/home/paulie/.config/inkscape/extensions/default_packages.tex"
   ns1:scale="40.0"
   ns1:alignment="middle center"
   inkscapeversion="0.92.3"
   ns1:jacobian_sqrt="53.33332"
   id="g2160"><g
     id="surface1"><g
       style="fill:#000000;fill-opacity:1"
       id="g2157"><path
         inkscape:connector-curvature="0"
         style="stroke:none;stroke-width:0"
         d="m 1.09375,-0.75 c 0,0.4375 -0.109375,0.4375 -0.78125,0.4375 V 0 c 0.359375,-0.015625 0.859375,-0.03125 1.140625,-0.03125 0.25,0 0.765625,0.015625 1.109375,0.03125 v -0.3125 c -0.671875,0 -0.78125,0 -0.78125,-0.4375 V -2.59375 C 1.78125,-3.625 2.5,-4.1875 3.125,-4.1875 c 0.640625,0 0.75,0.53125 0.75,1.109375 V -0.75 c 0,0.4375 -0.109375,0.4375 -0.78125,0.4375 V 0 c 0.34375,-0.015625 0.859375,-0.03125 1.125,-0.03125 0.25,0 0.78125,0.015625 1.109375,0.03125 v -0.3125 c -0.515625,0 -0.765625,0 -0.765625,-0.296875 v -1.90625 c 0,-0.859375 0,-1.15625 -0.3125,-1.515625 -0.140625,-0.171875 -0.46875,-0.375 -1.046875,-0.375 -0.84375,0 -1.28125,0.59375 -1.453125,0.984375 v -3.5 L 0.3125,-6.8125 V -6.5 c 0.703125,0 0.78125,0.0625 0.78125,0.5625 z m 0,0"
         transform="translate(148.712,134.765)"
         id="path2155" /></g></g></g><g
   id="g2055"
   ns1:jacobian_sqrt="53.333333"
   inkscapeversion="0.92.3"
   ns1:alignment="middle center"
   ns1:scale="40.0"
   ns1:preamble="/home/paulie/.config/inkscape/extensions/default_packages.tex"
   ns1:text="$\\displaystyle \\frac{\\eta_{min}}{h}$"
   ns1:pdfconverter="pdf2svg"
   ns1:texconverter="pdflatex"
   ns1:version="0.8.1"
   transform="matrix(53.333333,0,0,53.333333,-7603.043,-2798.2433)"><g
     id="g2053"><g
       id="g2037"
       style="fill:#000000;fill-opacity:1"><path
         id="path2035"
         transform="translate(149.908,129.091)"
         d="M 4.859375,-2.765625 C 4.921875,-2.9375 4.9375,-3.078125 4.9375,-3.34375 c 0,-0.640625 -0.390625,-1.0625 -1.140625,-1.0625 -0.78125,0 -1.296875,0.515625 -1.546875,0.875 -0.046875,-0.578125 -0.46875,-0.875 -0.921875,-0.875 -0.453125,0 -0.640625,0.390625 -0.734375,0.5625 C 0.421875,-3.5 0.296875,-2.90625 0.296875,-2.875 c 0,0.109375 0.09375,0.109375 0.109375,0.109375 0.109375,0 0.109375,-0.015625 0.171875,-0.234375 0.171875,-0.703125 0.375,-1.1875 0.734375,-1.1875 0.15625,0 0.296875,0.078125 0.296875,0.453125 0,0.21875 -0.03125,0.328125 -0.15625,0.84375 L 0.875,-0.59375 c -0.03125,0.15625 -0.09375,0.390625 -0.09375,0.4375 0,0.171875 0.140625,0.265625 0.296875,0.265625 0.125,0 0.296875,-0.078125 0.375,-0.28125 0,-0.015625 0.125,-0.484375 0.1875,-0.734375 l 0.21875,-0.890625 C 1.90625,-2.03125 1.96875,-2.25 2.03125,-2.46875 2.046875,-2.53125 2.125,-2.859375 2.140625,-2.921875 2.15625,-3.015625 2.46875,-3.5625 2.8125,-3.84375 3.03125,-4 3.34375,-4.1875 3.765625,-4.1875 c 0.4375,0 0.546875,0.34375 0.546875,0.703125 0,0.046875 0,0.21875 -0.109375,0.625 l -1.125,4.578125 c -0.03125,0.125 -0.03125,0.140625 -0.03125,0.171875 0,0.140625 0.109375,0.265625 0.265625,0.265625 0.3125,0 0.390625,-0.296875 0.421875,-0.40625 z m 0,0"
         style="stroke:none;stroke-width:0"
         inkscape:connector-curvature="0" /></g><g
       id="g2045"
       style="fill:#000000;fill-opacity:1"><path
         id="path2039"
         transform="translate(154.855,130.586)"
         d="m 3.03125,-0.5625 c -0.046875,0.140625 -0.109375,0.375 -0.109375,0.40625 0,0.15625 0.125,0.21875 0.234375,0.21875 0.140625,0 0.25,-0.078125 0.28125,-0.140625 0.03125,-0.0625 0.09375,-0.296875 0.125,-0.4375 0.03125,-0.125 0.109375,-0.453125 0.15625,-0.625 0.03125,-0.15625 0.078125,-0.3125 0.109375,-0.46875 0.078125,-0.296875 0.078125,-0.3125 0.21875,-0.53125 C 4.265625,-2.484375 4.625,-2.875 5.15625,-2.875 c 0.390625,0 0.421875,0.3125 0.421875,0.484375 0,0.421875 -0.296875,1.1875 -0.421875,1.484375 -0.0625,0.203125 -0.09375,0.265625 -0.09375,0.375 0,0.375 0.296875,0.59375 0.65625,0.59375 0.703125,0 1,-0.953125 1,-1.0625 0,-0.09375 -0.078125,-0.09375 -0.109375,-0.09375 -0.09375,0 -0.09375,0.046875 -0.125,0.125 C 6.328125,-0.40625 6.015625,-0.125 5.75,-0.125 c -0.15625,0 -0.1875,-0.09375 -0.1875,-0.25 0,-0.15625 0.046875,-0.25 0.171875,-0.5625 0.078125,-0.21875 0.359375,-0.953125 0.359375,-1.34375 0,-0.109375 0,-0.40625 -0.25,-0.609375 -0.125,-0.078125 -0.328125,-0.1875 -0.65625,-0.1875 -0.625,0 -1,0.421875 -1.234375,0.703125 C 3.90625,-2.96875 3.40625,-3.078125 3.046875,-3.078125 2.46875,-3.078125 2.078125,-2.71875 1.875,-2.4375 1.828125,-2.921875 1.421875,-3.078125 1.125,-3.078125 c -0.296875,0 -0.453125,0.21875 -0.546875,0.375 -0.15625,0.265625 -0.25,0.65625 -0.25,0.703125 0,0.078125 0.09375,0.078125 0.125,0.078125 0.09375,0 0.09375,-0.015625 0.140625,-0.203125 0.109375,-0.40625 0.25,-0.75 0.515625,-0.75 0.1875,0 0.234375,0.15625 0.234375,0.34375 0,0.125 -0.0625,0.390625 -0.125,0.578125 -0.046875,0.1875 -0.109375,0.46875 -0.140625,0.625 L 0.84375,-0.4375 c -0.015625,0.09375 -0.0625,0.265625 -0.0625,0.28125 0,0.15625 0.125,0.21875 0.234375,0.21875 0.125,0 0.234375,-0.078125 0.28125,-0.140625 0.03125,-0.0625 0.078125,-0.296875 0.125,-0.4375 0.03125,-0.125 0.109375,-0.453125 0.140625,-0.625 0.046875,-0.15625 0.09375,-0.3125 0.125,-0.46875 0.078125,-0.28125 0.09375,-0.34375 0.296875,-0.625 C 2.171875,-2.515625 2.5,-2.875 3.03125,-2.875 c 0.390625,0 0.40625,0.359375 0.40625,0.484375 0,0.171875 -0.015625,0.265625 -0.125,0.65625 z m 0,0"
         style="stroke:none;stroke-width:0"
         inkscape:connector-curvature="0" /><path
         id="path2041"
         transform="translate(161.92434,130.586)"
         d="m 2.265625,-4.359375 c 0,-0.109375 -0.09375,-0.265625 -0.28125,-0.265625 -0.1875,0 -0.390625,0.1875 -0.390625,0.390625 0,0.109375 0.078125,0.265625 0.28125,0.265625 0.1875,0 0.390625,-0.203125 0.390625,-0.390625 z M 0.84375,-0.8125 c -0.03125,0.09375 -0.0625,0.171875 -0.0625,0.296875 0,0.328125 0.265625,0.578125 0.65625,0.578125 0.6875,0 1,-0.953125 1,-1.0625 0,-0.09375 -0.09375,-0.09375 -0.109375,-0.09375 -0.09375,0 -0.109375,0.046875 -0.140625,0.125 -0.15625,0.5625 -0.453125,0.84375 -0.734375,0.84375 -0.140625,0 -0.171875,-0.09375 -0.171875,-0.25 0,-0.15625 0.046875,-0.28125 0.109375,-0.4375 C 1.46875,-1 1.546875,-1.1875 1.609375,-1.375 1.671875,-1.546875 1.9375,-2.171875 1.953125,-2.265625 1.984375,-2.328125 2,-2.40625 2,-2.484375 2,-2.8125 1.71875,-3.078125 1.34375,-3.078125 0.640625,-3.078125 0.328125,-2.125 0.328125,-2 c 0,0.078125 0.09375,0.078125 0.125,0.078125 0.09375,0 0.09375,-0.03125 0.125,-0.109375 C 0.75,-2.625 1.0625,-2.875 1.3125,-2.875 c 0.109375,0 0.171875,0.046875 0.171875,0.234375 0,0.171875 -0.03125,0.265625 -0.203125,0.703125 z m 0,0"
         style="stroke:none;stroke-width:0"
         inkscape:connector-curvature="0" /><path
         id="path2043"
         transform="translate(164.74315,130.586)"
         d="m 0.84375,-0.4375 c -0.015625,0.09375 -0.0625,0.265625 -0.0625,0.28125 0,0.15625 0.125,0.21875 0.234375,0.21875 0.125,0 0.234375,-0.078125 0.28125,-0.140625 0.03125,-0.0625 0.078125,-0.296875 0.125,-0.4375 0.03125,-0.125 0.109375,-0.453125 0.140625,-0.625 0.046875,-0.15625 0.09375,-0.3125 0.125,-0.46875 0.078125,-0.28125 0.09375,-0.34375 0.296875,-0.625 C 2.171875,-2.515625 2.5,-2.875 3.03125,-2.875 c 0.390625,0 0.40625,0.359375 0.40625,0.484375 0,0.421875 -0.296875,1.1875 -0.40625,1.484375 -0.078125,0.203125 -0.109375,0.265625 -0.109375,0.375 0,0.375 0.296875,0.59375 0.65625,0.59375 0.703125,0 1,-0.953125 1,-1.0625 0,-0.09375 -0.078125,-0.09375 -0.109375,-0.09375 -0.09375,0 -0.09375,0.046875 -0.125,0.125 C 4.1875,-0.40625 3.875,-0.125 3.609375,-0.125 c -0.15625,0 -0.1875,-0.09375 -0.1875,-0.25 0,-0.15625 0.046875,-0.25 0.171875,-0.5625 0.078125,-0.21875 0.359375,-0.953125 0.359375,-1.34375 0,-0.671875 -0.53125,-0.796875 -0.90625,-0.796875 -0.578125,0 -0.96875,0.359375 -1.171875,0.640625 -0.046875,-0.484375 -0.453125,-0.640625 -0.75,-0.640625 -0.296875,0 -0.453125,0.21875 -0.546875,0.375 -0.15625,0.265625 -0.25,0.65625 -0.25,0.703125 0,0.078125 0.09375,0.078125 0.125,0.078125 0.09375,0 0.09375,-0.015625 0.140625,-0.203125 0.109375,-0.40625 0.25,-0.75 0.515625,-0.75 0.1875,0 0.234375,0.15625 0.234375,0.34375 0,0.125 -0.0625,0.390625 -0.125,0.578125 -0.046875,0.1875 -0.109375,0.46875 -0.140625,0.625 z m 0,0"
         style="stroke:none;stroke-width:0"
         inkscape:connector-curvature="0" /></g><path
       id="path2047"
       transform="matrix(1,0,0,-1,149.908,133.341)"
       d="M -0.00175,0.00115625 H 20.256062"
       style="fill:none;stroke:#000000;stroke-width:0.398;stroke-linecap:butt;stroke-linejoin:miter;stroke-miterlimit:10;stroke-opacity:1"
       inkscape:connector-curvature="0" /><g
       id="g2051"
       style="fill:#000000;fill-opacity:1"><path
         id="path2049"
         transform="translate(157.167,142.665)"
         d="m 2.859375,-6.8125 c 0,0 0,-0.109375 -0.125,-0.109375 -0.234375,0 -0.953125,0.078125 -1.21875,0.109375 -0.078125,0 -0.1875,0.015625 -0.1875,0.1875 0,0.125 0.09375,0.125 0.234375,0.125 0.484375,0 0.5,0.0625 0.5,0.171875 L 2.03125,-6.125 0.59375,-0.390625 c -0.046875,0.140625 -0.046875,0.15625 -0.046875,0.21875 0,0.234375 0.203125,0.28125 0.296875,0.28125 0.15625,0 0.3125,-0.125 0.359375,-0.265625 l 0.1875,-0.75 0.21875,-0.890625 C 1.671875,-2.03125 1.734375,-2.25 1.78125,-2.46875 1.796875,-2.53125 1.890625,-2.859375 1.890625,-2.921875 1.921875,-3.015625 2.234375,-3.5625 2.578125,-3.84375 2.796875,-4 3.09375,-4.1875 3.53125,-4.1875 c 0.421875,0 0.53125,0.34375 0.53125,0.703125 0,0.53125 -0.375,1.625 -0.609375,2.234375 C 3.375,-1.03125 3.3125,-0.90625 3.3125,-0.703125 c 0,0.46875 0.359375,0.8125 0.828125,0.8125 0.9375,0 1.296875,-1.453125 1.296875,-1.53125 0,-0.109375 -0.078125,-0.109375 -0.109375,-0.109375 -0.109375,0 -0.109375,0.03125 -0.15625,0.1875 -0.140625,0.53125 -0.46875,1.234375 -1.015625,1.234375 -0.171875,0 -0.234375,-0.09375 -0.234375,-0.328125 0,-0.25 0.078125,-0.484375 0.171875,-0.703125 0.15625,-0.4375 0.609375,-1.625 0.609375,-2.203125 0,-0.640625 -0.390625,-1.0625 -1.140625,-1.0625 -0.625,0 -1.109375,0.3125 -1.484375,0.765625 z m 0,0"
         style="stroke:none;stroke-width:0"
         inkscape:connector-curvature="0" /></g></g></g></svg>