<?xml version="1.0" encoding="UTF-8" standalone="no"?>
<svg
   xmlns:ns1="http://www.iki.fi/pav/software/textext/"
   xmlns:dc="http://purl.org/dc/elements/1.1/"
   xmlns:cc="http://creativecommons.org/ns#"
   xmlns:rdf="http://www.w3.org/1999/02/22-rdf-syntax-ns#"
   xmlns:svg="http://www.w3.org/2000/svg"
   xmlns="http://www.w3.org/2000/svg"
   xmlns:sodipodi="http://sodipodi.sourceforge.net/DTD/sodipodi-0.dtd"
   xmlns:inkscape="http://www.inkscape.org/namespaces/inkscape"
   inkscape:version="0.92.3 (2405546, 2018-03-11)"
   sodipodi:docname="mh_dirichlet_inf-sup_ink.svg"
   id="svg294"
   xml:space="preserve"
   stroke-linejoin="round"
   stroke-width="28.222"
   version="1.1"
   viewBox="0 0 16000 9000"
   height="90mm"
   width="160mm"><sodipodi:namedview
   inkscape:current-layer="svg294"
   inkscape:window-maximized="1"
   inkscape:window-y="0"
   inkscape:window-x="1680"
   inkscape:cy="170.07874"
   inkscape:cx="186.6358"
   inkscape:zoom="1.7644401"
   showgrid="false"
   id="namedview296"
   inkscape:window-height="1022"
   inkscape:window-width="1680"
   inkscape:pageshadow="2"
   inkscape:pageopacity="0"
   guidetolerance="10"
   gridtolerance="10"
   objecttolerance="10"
   borderopacity="1"
   bordercolor="#666666"
   pagecolor="#ffffff" /><metadata
   id="metadata300"><rdf:RDF><cc:Work
       rdf:about=""><dc:format>image/svg+xml</dc:format><dc:type
         rdf:resource="http://purl.org/dc/dcmitype/StillImage" /><dc:title /></cc:Work></rdf:RDF></metadata><defs
   id="defs298" />
 
 <path
   id="path4"
   d="M 8806,7196 L 2034,7196 2034,1474 15579,1474 15579,7196 8806,7196 Z"
   stroke-linejoin="round"
   stroke="rgb(179,179,179)"
   fill="none" />
 <path
   id="path6"
   d="M 15579,7195 L 2034,7195"
   stroke-linejoin="round"
   stroke="rgb(179,179,179)"
   fill="none" />
 <path
   id="path8"
   d="M 15579,5287 L 2034,5287"
   stroke-linejoin="round"
   stroke="rgb(179,179,179)"
   fill="none" />
 <path
   id="path10"
   d="M 15579,3380 L 2034,3380"
   stroke-linejoin="round"
   stroke="rgb(179,179,179)"
   fill="none" />
 <path
   id="path12"
   d="M 15579,1473 L 2034,1473"
   stroke-linejoin="round"
   stroke="rgb(179,179,179)"
   fill="none" />
 <path
   id="path14"
   d="M 2034,7345 L 2034,7195"
   stroke-linejoin="round"
   stroke="rgb(179,179,179)"
   fill="none" />
 <path
   id="path16"
   d="M 2034,7345 L 2034,7195"
   stroke-linejoin="round"
   stroke="rgb(179,179,179)"
   fill="none" />
 <path
   id="path18"
   d="M 3388,7345 L 3388,7195"
   stroke-linejoin="round"
   stroke="rgb(179,179,179)"
   fill="none" />
 <path
   id="path20"
   d="M 3388,7345 L 3388,7195"
   stroke-linejoin="round"
   stroke="rgb(179,179,179)"
   fill="none" />
 <path
   id="path22"
   d="M 4743,7345 L 4743,7195"
   stroke-linejoin="round"
   stroke="rgb(179,179,179)"
   fill="none" />
 <path
   id="path24"
   d="M 4743,7345 L 4743,7195"
   stroke-linejoin="round"
   stroke="rgb(179,179,179)"
   fill="none" />
 <path
   id="path26"
   d="M 6097,7345 L 6097,7195"
   stroke-linejoin="round"
   stroke="rgb(179,179,179)"
   fill="none" />
 <path
   id="path28"
   d="M 6097,7345 L 6097,7195"
   stroke-linejoin="round"
   stroke="rgb(179,179,179)"
   fill="none" />
 <path
   id="path30"
   d="M 7452,7345 L 7452,7195"
   stroke-linejoin="round"
   stroke="rgb(179,179,179)"
   fill="none" />
 <path
   id="path32"
   d="M 7452,7345 L 7452,7195"
   stroke-linejoin="round"
   stroke="rgb(179,179,179)"
   fill="none" />
 <path
   id="path34"
   d="M 8806,7345 L 8806,7195"
   stroke-linejoin="round"
   stroke="rgb(179,179,179)"
   fill="none" />
 <path
   id="path36"
   d="M 8806,7345 L 8806,7195"
   stroke-linejoin="round"
   stroke="rgb(179,179,179)"
   fill="none" />
 <path
   id="path38"
   d="M 10160,7345 L 10160,7195"
   stroke-linejoin="round"
   stroke="rgb(179,179,179)"
   fill="none" />
 <path
   id="path40"
   d="M 10160,7345 L 10160,7195"
   stroke-linejoin="round"
   stroke="rgb(179,179,179)"
   fill="none" />
 <path
   id="path42"
   d="M 11515,7345 L 11515,7195"
   stroke-linejoin="round"
   stroke="rgb(179,179,179)"
   fill="none" />
 <path
   id="path44"
   d="M 11515,7345 L 11515,7195"
   stroke-linejoin="round"
   stroke="rgb(179,179,179)"
   fill="none" />
 <path
   id="path46"
   d="M 12869,7345 L 12869,7195"
   stroke-linejoin="round"
   stroke="rgb(179,179,179)"
   fill="none" />
 <path
   id="path48"
   d="M 12869,7345 L 12869,7195"
   stroke-linejoin="round"
   stroke="rgb(179,179,179)"
   fill="none" />
 <path
   id="path50"
   d="M 14224,7345 L 14224,7195"
   stroke-linejoin="round"
   stroke="rgb(179,179,179)"
   fill="none" />
 <path
   id="path52"
   d="M 14224,7345 L 14224,7195"
   stroke-linejoin="round"
   stroke="rgb(179,179,179)"
   fill="none" />
 <path
   id="path54"
   d="M 15579,7345 L 15579,7195"
   stroke-linejoin="round"
   stroke="rgb(179,179,179)"
   fill="none" />
 <path
   id="path56"
   d="M 15579,7345 L 15579,7195"
   stroke-linejoin="round"
   stroke="rgb(179,179,179)"
   fill="none" />
 <path
   id="path58"
   d="M 2034,7195 L 15579,7195"
   stroke-linejoin="round"
   stroke="rgb(179,179,179)"
   fill="none" />
 <path
   id="path60"
   d="M 1884,7195 L 2034,7195"
   stroke-linejoin="round"
   stroke="rgb(179,179,179)"
   fill="none" />
 <path
   id="path62"
   d="M 1884,7195 L 2034,7195"
   stroke-linejoin="round"
   stroke="rgb(179,179,179)"
   fill="none" />
 <path
   id="path64"
   d="M 1884,5287 L 2034,5287"
   stroke-linejoin="round"
   stroke="rgb(179,179,179)"
   fill="none" />
 <path
   id="path66"
   d="M 1884,5287 L 2034,5287"
   stroke-linejoin="round"
   stroke="rgb(179,179,179)"
   fill="none" />
 <path
   id="path68"
   d="M 1884,3380 L 2034,3380"
   stroke-linejoin="round"
   stroke="rgb(179,179,179)"
   fill="none" />
 <path
   id="path70"
   d="M 1884,3380 L 2034,3380"
   stroke-linejoin="round"
   stroke="rgb(179,179,179)"
   fill="none" />
 <path
   id="path72"
   d="M 1884,1473 L 2034,1473"
   stroke-linejoin="round"
   stroke="rgb(179,179,179)"
   fill="none" />
 <path
   id="path74"
   d="M 1884,1473 L 2034,1473"
   stroke-linejoin="round"
   stroke="rgb(179,179,179)"
   fill="none" />
 <path
   id="path76"
   d="M 2034,7195 L 2034,1473"
   stroke-linejoin="round"
   stroke="rgb(179,179,179)"
   fill="none" />
 <path
   id="path78"
   d="M 14006,4831 L 8019,4809 5027,4803 3530,4802 2782,4802"
   stroke-linejoin="round"
   stroke-width="80"
   stroke="rgb(255,66,14)"
   fill="none" />
 <path
   id="path80"
   d="M 13881,4831 L 14006,4956 14131,4831 14006,4706 13881,4831 Z"
   stroke="none"
   fill="rgb(255,66,14)" />
 <path
   id="path82"
   d="M 13881,4831 L 14006,4956 14131,4831 14006,4706 13881,4831 Z"
   stroke-linejoin="round"
   stroke="rgb(255,66,14)"
   fill="none" />
 <path
   id="path84"
   d="M 7895,4809 L 8019,4934 8144,4809 8019,4684 7895,4809 Z"
   stroke="none"
   fill="rgb(255,66,14)" />
 <path
   id="path86"
   d="M 7895,4809 L 8019,4934 8144,4809 8019,4684 7895,4809 Z"
   stroke-linejoin="round"
   stroke="rgb(255,66,14)"
   fill="none" />
 <path
   id="path88"
   d="M 4902,4803 L 5027,4928 5152,4803 5027,4678 4902,4803 Z"
   stroke="none"
   fill="rgb(255,66,14)" />
 <path
   id="path90"
   d="M 4902,4803 L 5027,4928 5152,4803 5027,4678 4902,4803 Z"
   stroke-linejoin="round"
   stroke="rgb(255,66,14)"
   fill="none" />
 <path
   id="path92"
   d="M 3405,4802 L 3530,4927 3655,4802 3530,4677 3405,4802 Z"
   stroke="none"
   fill="rgb(255,66,14)" />
 <path
   id="path94"
   d="M 3405,4802 L 3530,4927 3655,4802 3530,4677 3405,4802 Z"
   stroke-linejoin="round"
   stroke="rgb(255,66,14)"
   fill="none" />
 <path
   id="path96"
   d="M 2657,4802 L 2782,4927 2907,4802 2782,4677 2657,4802 Z"
   stroke="none"
   fill="rgb(255,66,14)" />
 <path
   id="path98"
   d="M 2657,4802 L 2782,4927 2907,4802 2782,4677 2657,4802 Z"
   stroke-linejoin="round"
   stroke="rgb(255,66,14)"
   fill="none" />
 <path
   id="path100"
   d="M 14006,4960 L 8019,4451 5027,4342 3530,4335 2782,4325"
   stroke-linejoin="round"
   stroke-width="80"
   stroke="rgb(0,69,134)"
   fill="none" />
 <path
   id="path102"
   d="M 13881,4835 L 13881,5085 14131,5085 14131,4835 13881,4835 Z"
   stroke="none"
   fill="rgb(0,69,134)" />
 <path
   id="path104"
   d="M 13881,4835 L 13881,5085 14131,5085 14131,4835 13881,4835 Z"
   stroke-linejoin="round"
   stroke="rgb(0,69,134)"
   fill="none" />
 <path
   id="path106"
   d="M 7895,4326 L 7895,4575 8144,4575 8144,4326 7895,4326 Z"
   stroke="none"
   fill="rgb(0,69,134)" />
 <path
   id="path108"
   d="M 7895,4326 L 7895,4575 8144,4575 8144,4326 7895,4326 Z"
   stroke-linejoin="round"
   stroke="rgb(0,69,134)"
   fill="none" />
 <path
   id="path110"
   d="M 4902,4217 L 4902,4467 5152,4467 5152,4217 4902,4217 Z"
   stroke="none"
   fill="rgb(0,69,134)" />
 <path
   id="path112"
   d="M 4902,4217 L 4902,4467 5152,4467 5152,4217 4902,4217 Z"
   stroke-linejoin="round"
   stroke="rgb(0,69,134)"
   fill="none" />
 <path
   id="path114"
   d="M 3405,4210 L 3405,4460 3655,4460 3655,4210 3405,4210 Z"
   stroke="none"
   fill="rgb(0,69,134)" />
 <path
   id="path116"
   d="M 3405,4210 L 3405,4460 3655,4460 3655,4210 3405,4210 Z"
   stroke-linejoin="round"
   stroke="rgb(0,69,134)"
   fill="none" />
 <path
   id="path118"
   d="M 2657,4200 L 2657,4450 2907,4450 2907,4200 2657,4200 Z"
   stroke="none"
   fill="rgb(0,69,134)" />
 <path
   id="path120"
   d="M 2657,4200 L 2657,4450 2907,4450 2907,4200 2657,4200 Z"
   stroke-linejoin="round"
   stroke="rgb(0,69,134)"
   fill="none" />
 <text
   id="text128"
   class="TextShape"><tspan
     id="tspan126"
     font-weight="400"
     font-size="353px"
     font-family="Liberation Sans, sans-serif"
     class="TextParagraph"><tspan
       id="tspan124"
       y="7763"
       x="1941"
       class="TextPosition"><tspan
         id="tspan122"
         stroke="none"
         fill="rgb(0,0,0)">0</tspan></tspan></tspan></text>















 <text
   id="text136"
   class="TextShape"><tspan
     id="tspan134"
     font-weight="400"
     font-size="353px"
     font-family="Liberation Sans, sans-serif"
     class="TextParagraph"><tspan
       id="tspan132"
       y="7763"
       x="3150"
       class="TextPosition"><tspan
         id="tspan130"
         stroke="none"
         fill="rgb(0,0,0)">0.2</tspan></tspan></tspan></text>















 <text
   id="text144"
   class="TextShape"><tspan
     id="tspan142"
     font-weight="400"
     font-size="353px"
     font-family="Liberation Sans, sans-serif"
     class="TextParagraph"><tspan
       id="tspan140"
       y="7763"
       x="4505"
       class="TextPosition"><tspan
         id="tspan138"
         stroke="none"
         fill="rgb(0,0,0)">0.4</tspan></tspan></tspan></text>















 <text
   id="text152"
   class="TextShape"><tspan
     id="tspan150"
     font-weight="400"
     font-size="353px"
     font-family="Liberation Sans, sans-serif"
     class="TextParagraph"><tspan
       id="tspan148"
       y="7763"
       x="5859"
       class="TextPosition"><tspan
         id="tspan146"
         stroke="none"
         fill="rgb(0,0,0)">0.6</tspan></tspan></tspan></text>















 <text
   id="text160"
   class="TextShape"><tspan
     id="tspan158"
     font-weight="400"
     font-size="353px"
     font-family="Liberation Sans, sans-serif"
     class="TextParagraph"><tspan
       id="tspan156"
       y="7763"
       x="7214"
       class="TextPosition"><tspan
         id="tspan154"
         stroke="none"
         fill="rgb(0,0,0)">0.8</tspan></tspan></tspan></text>















 <text
   id="text168"
   class="TextShape"><tspan
     id="tspan166"
     font-weight="400"
     font-size="353px"
     font-family="Liberation Sans, sans-serif"
     class="TextParagraph"><tspan
       id="tspan164"
       y="7763"
       x="8714"
       class="TextPosition"><tspan
         id="tspan162"
         stroke="none"
         fill="rgb(0,0,0)">1</tspan></tspan></tspan></text>















 <text
   id="text176"
   class="TextShape"><tspan
     id="tspan174"
     font-weight="400"
     font-size="353px"
     font-family="Liberation Sans, sans-serif"
     class="TextParagraph"><tspan
       id="tspan172"
       y="7763"
       x="9923"
       class="TextPosition"><tspan
         id="tspan170"
         stroke="none"
         fill="rgb(0,0,0)">1.2</tspan></tspan></tspan></text>















 <text
   id="text184"
   class="TextShape"><tspan
     id="tspan182"
     font-weight="400"
     font-size="353px"
     font-family="Liberation Sans, sans-serif"
     class="TextParagraph"><tspan
       id="tspan180"
       y="7763"
       x="11278"
       class="TextPosition"><tspan
         id="tspan178"
         stroke="none"
         fill="rgb(0,0,0)">1.4</tspan></tspan></tspan></text>















 <text
   id="text192"
   class="TextShape"><tspan
     id="tspan190"
     font-weight="400"
     font-size="353px"
     font-family="Liberation Sans, sans-serif"
     class="TextParagraph"><tspan
       id="tspan188"
       y="7763"
       x="12632"
       class="TextPosition"><tspan
         id="tspan186"
         stroke="none"
         fill="rgb(0,0,0)">1.6</tspan></tspan></tspan></text>















 <text
   id="text200"
   class="TextShape"><tspan
     id="tspan198"
     font-weight="400"
     font-size="353px"
     font-family="Liberation Sans, sans-serif"
     class="TextParagraph"><tspan
       id="tspan196"
       y="7763"
       x="13987"
       class="TextPosition"><tspan
         id="tspan194"
         stroke="none"
         fill="rgb(0,0,0)">1.8</tspan></tspan></tspan></text>















 <text
   id="text208"
   class="TextShape"><tspan
     id="tspan206"
     font-weight="400"
     font-size="353px"
     font-family="Liberation Sans, sans-serif"
     class="TextParagraph"><tspan
       id="tspan204"
       y="7763"
       x="15487"
       class="TextPosition"><tspan
         id="tspan202"
         stroke="none"
         fill="rgb(0,0,0)">2</tspan></tspan></tspan></text>















 <text
   id="text216"
   class="TextShape"><tspan
     id="tspan214"
     font-weight="400"
     font-size="353px"
     font-family="Liberation Sans, sans-serif"
     class="TextParagraph"><tspan
       id="tspan212"
       y="7316"
       x="1599"
       class="TextPosition"><tspan
         id="tspan210"
         stroke="none"
         fill="rgb(0,0,0)">0</tspan></tspan></tspan></text>















 <text
   id="text224"
   class="TextShape"><tspan
     id="tspan222"
     font-weight="400"
     font-size="353px"
     font-family="Liberation Sans, sans-serif"
     class="TextParagraph"><tspan
       id="tspan220"
       y="5408"
       x="1308"
       class="TextPosition"><tspan
         id="tspan218"
         stroke="none"
         fill="rgb(0,0,0)">0.1</tspan></tspan></tspan></text>















 <text
   id="text232"
   class="TextShape"><tspan
     id="tspan230"
     font-weight="400"
     font-size="353px"
     font-family="Liberation Sans, sans-serif"
     class="TextParagraph"><tspan
       id="tspan228"
       y="3500"
       x="1308"
       class="TextPosition"><tspan
         id="tspan226"
         stroke="none"
         fill="rgb(0,0,0)">0.2</tspan></tspan></tspan></text>















 <text
   id="text240"
   class="TextShape"><tspan
     id="tspan238"
     font-weight="400"
     font-size="353px"
     font-family="Liberation Sans, sans-serif"
     class="TextParagraph"><tspan
       id="tspan236"
       y="1593"
       x="1308"
       class="TextPosition"><tspan
         id="tspan234"
         stroke="none"
         fill="rgb(0,0,0)">0.3</tspan></tspan></tspan></text>















 
 <path
   id="path250"
   d="M 11996,1774 L 12796,1774"
   stroke-linejoin="round"
   stroke-width="80"
   stroke="rgb(0,69,134)"
   fill="none" />
 <path
   id="path252"
   d="M 12290,1669 L 12290,1880 12501,1880 12501,1669 12290,1669 Z"
   stroke="none"
   fill="rgb(0,69,134)" />
 <path
   id="path254"
   d="M 12290,1669 L 12290,1880 12501,1880 12501,1669 12290,1669 Z"
   stroke-linejoin="round"
   stroke="rgb(0,69,134)"
   fill="none" />
 <path
   id="path256"
   d="M 11996,2272 L 12796,2272"
   stroke-linejoin="round"
   stroke-width="80"
   stroke="rgb(255,66,14)"
   fill="none" />
 <path
   id="path258"
   d="M 12290,2272 L 12396,2378 12501,2272 12396,2167 12290,2272 Z"
   stroke="none"
   fill="rgb(255,66,14)" />
 <path
   id="path260"
   d="M 12290,2272 L 12396,2378 12501,2272 12396,2167 12290,2272 Z"
   stroke-linejoin="round"
   stroke="rgb(255,66,14)"
   fill="none" />
 <text
   id="text268"
   class="TextShape"><tspan
     id="tspan266"
     font-weight="400"
     font-size="353px"
     font-family="Liberation Sans, sans-serif"
     class="TextParagraph"><tspan
       id="tspan264"
       y="1894"
       x="12896"
       class="TextPosition"><tspan
         id="tspan262"
         stroke="none"
         fill="rgb(0,0,0)">singular case</tspan></tspan></tspan></text>















 <text
   id="text276"
   class="TextShape"><tspan
     id="tspan274"
     font-weight="400"
     font-size="353px"
     font-family="Liberation Sans, sans-serif"
     class="TextParagraph"><tspan
       id="tspan272"
       y="2392"
       x="12896"
       class="TextPosition"><tspan
         id="tspan270"
         stroke="none"
         fill="rgb(0,0,0)">regular case</tspan></tspan></tspan></text>















 

 



<g
   id="g2160"
   ns1:jacobian_sqrt="53.33332"
   inkscapeversion="0.92.3"
   ns1:alignment="middle center"
   ns1:scale="40.0"
   ns1:preamble="/home/paulie/.config/inkscape/extensions/default_packages.tex"
   ns1:text="h"
   ns1:pdfconverter="pdf2svg"
   ns1:texconverter="pdflatex"
   ns1:version="0.8.1"
   transform="matrix(53.33332,0,0,53.33332,724.77869,1339.6433)"><g
     id="surface1"><g
       id="g2157"
       style="fill:#000000;fill-opacity:1"><path
         id="path2155"
         transform="translate(148.712,134.765)"
         d="m 1.09375,-0.75 c 0,0.4375 -0.109375,0.4375 -0.78125,0.4375 V 0 c 0.359375,-0.015625 0.859375,-0.03125 1.140625,-0.03125 0.25,0 0.765625,0.015625 1.109375,0.03125 v -0.3125 c -0.671875,0 -0.78125,0 -0.78125,-0.4375 V -2.59375 C 1.78125,-3.625 2.5,-4.1875 3.125,-4.1875 c 0.640625,0 0.75,0.53125 0.75,1.109375 V -0.75 c 0,0.4375 -0.109375,0.4375 -0.78125,0.4375 V 0 c 0.34375,-0.015625 0.859375,-0.03125 1.125,-0.03125 0.25,0 0.78125,0.015625 1.109375,0.03125 v -0.3125 c -0.515625,0 -0.765625,0 -0.765625,-0.296875 v -1.90625 c 0,-0.859375 0,-1.15625 -0.3125,-1.515625 -0.140625,-0.171875 -0.46875,-0.375 -1.046875,-0.375 -0.84375,0 -1.28125,0.59375 -1.453125,0.984375 v -3.5 L 0.3125,-6.8125 V -6.5 c 0.703125,0 0.78125,0.0625 0.78125,0.5625 z m 0,0"
         style="stroke:none;stroke-width:0"
         inkscape:connector-curvature="0" /></g></g></g><g
   id="g1123"
   ns1:jacobian_sqrt="53.333333"
   inkscapeversion="0.92.3"
   ns1:alignment="middle center"
   ns1:scale="40.0"
   ns1:preamble="/home/paulie/.config/inkscape/extensions/default_packages.tex"
   ns1:text="$\\displaystyle \\frac{\\mathring\\eta_{min}}{h}$"
   ns1:pdfconverter="pdf2svg"
   ns1:texconverter="pdflatex"
   ns1:version="0.8.1"
   transform="matrix(53.333333,0.000000,0.000000,53.333333,-7603.043000,-2865.539966)"><g
     id="g1121"><g
       id="g1101"
       style="fill:rgb(0%,0%,0%);fill-opacity:1;"><path
         id="path1099"
         transform="translate(149.377,131.72)"
         d="M 4.6875 -6.265625 C 4.6875 -6.734375 4.28125 -7.140625 3.734375 -7.140625 C 3.171875 -7.140625 2.78125 -6.703125 2.78125 -6.265625 C 2.78125 -5.765625 3.21875 -5.390625 3.734375 -5.390625 C 4.28125 -5.390625 4.6875 -5.796875 4.6875 -6.265625 Z M 3.734375 -5.609375 C 3.3125 -5.609375 3.03125 -5.796875 3.03125 -6.265625 C 3.03125 -6.71875 3.296875 -6.921875 3.734375 -6.921875 C 4.15625 -6.921875 4.4375 -6.734375 4.4375 -6.265625 C 4.4375 -5.8125 4.171875 -5.609375 3.734375 -5.609375 Z M 3.734375 -5.609375 "
         style="stroke:none;stroke-width:0" /></g><g
       id="g1105"
       style="fill:rgb(0%,0%,0%);fill-opacity:1;"><path
         id="path1103"
         transform="translate(149.908,131.72)"
         d="M 4.859375 -2.765625 C 4.921875 -2.9375 4.9375 -3.078125 4.9375 -3.34375 C 4.9375 -3.984375 4.546875 -4.40625 3.796875 -4.40625 C 3.015625 -4.40625 2.5 -3.890625 2.25 -3.53125 C 2.203125 -4.109375 1.78125 -4.40625 1.328125 -4.40625 C 0.875 -4.40625 0.6875 -4.015625 0.59375 -3.84375 C 0.421875 -3.5 0.296875 -2.90625 0.296875 -2.875 C 0.296875 -2.765625 0.390625 -2.765625 0.40625 -2.765625 C 0.515625 -2.765625 0.515625 -2.78125 0.578125 -3 C 0.75 -3.703125 0.953125 -4.1875 1.3125 -4.1875 C 1.46875 -4.1875 1.609375 -4.109375 1.609375 -3.734375 C 1.609375 -3.515625 1.578125 -3.40625 1.453125 -2.890625 L 0.875 -0.59375 C 0.84375 -0.4375 0.78125 -0.203125 0.78125 -0.15625 C 0.78125 0.015625 0.921875 0.109375 1.078125 0.109375 C 1.203125 0.109375 1.375 0.03125 1.453125 -0.171875 C 1.453125 -0.1875 1.578125 -0.65625 1.640625 -0.90625 L 1.859375 -1.796875 C 1.90625 -2.03125 1.96875 -2.25 2.03125 -2.46875 C 2.046875 -2.53125 2.125 -2.859375 2.140625 -2.921875 C 2.15625 -3.015625 2.46875 -3.5625 2.8125 -3.84375 C 3.03125 -4 3.34375 -4.1875 3.765625 -4.1875 C 4.203125 -4.1875 4.3125 -3.84375 4.3125 -3.484375 C 4.3125 -3.4375 4.3125 -3.265625 4.203125 -2.859375 L 3.078125 1.71875 C 3.046875 1.84375 3.046875 1.859375 3.046875 1.890625 C 3.046875 2.03125 3.15625 2.15625 3.3125 2.15625 C 3.625 2.15625 3.703125 1.859375 3.734375 1.75 Z M 4.859375 -2.765625 "
         style="stroke:none;stroke-width:0" /></g><g
       id="g1113"
       style="fill:rgb(0%,0%,0%);fill-opacity:1;"><path
         id="path1107"
         transform="translate(154.855,133.215)"
         d="M 3.03125 -0.5625 C 2.984375 -0.421875 2.921875 -0.1875 2.921875 -0.15625 C 2.921875 0 3.046875 0.0625 3.15625 0.0625 C 3.296875 0.0625 3.40625 -0.015625 3.4375 -0.078125 C 3.46875 -0.140625 3.53125 -0.375 3.5625 -0.515625 C 3.59375 -0.640625 3.671875 -0.96875 3.71875 -1.140625 C 3.75 -1.296875 3.796875 -1.453125 3.828125 -1.609375 C 3.90625 -1.90625 3.90625 -1.921875 4.046875 -2.140625 C 4.265625 -2.484375 4.625 -2.875 5.15625 -2.875 C 5.546875 -2.875 5.578125 -2.5625 5.578125 -2.390625 C 5.578125 -1.96875 5.28125 -1.203125 5.15625 -0.90625 C 5.09375 -0.703125 5.0625 -0.640625 5.0625 -0.53125 C 5.0625 -0.15625 5.359375 0.0625 5.71875 0.0625 C 6.421875 0.0625 6.71875 -0.890625 6.71875 -1 C 6.71875 -1.09375 6.640625 -1.09375 6.609375 -1.09375 C 6.515625 -1.09375 6.515625 -1.046875 6.484375 -0.96875 C 6.328125 -0.40625 6.015625 -0.125 5.75 -0.125 C 5.59375 -0.125 5.5625 -0.21875 5.5625 -0.375 C 5.5625 -0.53125 5.609375 -0.625 5.734375 -0.9375 C 5.8125 -1.15625 6.09375 -1.890625 6.09375 -2.28125 C 6.09375 -2.390625 6.09375 -2.6875 5.84375 -2.890625 C 5.71875 -2.96875 5.515625 -3.078125 5.1875 -3.078125 C 4.5625 -3.078125 4.1875 -2.65625 3.953125 -2.375 C 3.90625 -2.96875 3.40625 -3.078125 3.046875 -3.078125 C 2.46875 -3.078125 2.078125 -2.71875 1.875 -2.4375 C 1.828125 -2.921875 1.421875 -3.078125 1.125 -3.078125 C 0.828125 -3.078125 0.671875 -2.859375 0.578125 -2.703125 C 0.421875 -2.4375 0.328125 -2.046875 0.328125 -2 C 0.328125 -1.921875 0.421875 -1.921875 0.453125 -1.921875 C 0.546875 -1.921875 0.546875 -1.9375 0.59375 -2.125 C 0.703125 -2.53125 0.84375 -2.875 1.109375 -2.875 C 1.296875 -2.875 1.34375 -2.71875 1.34375 -2.53125 C 1.34375 -2.40625 1.28125 -2.140625 1.21875 -1.953125 C 1.171875 -1.765625 1.109375 -1.484375 1.078125 -1.328125 L 0.84375 -0.4375 C 0.828125 -0.34375 0.78125 -0.171875 0.78125 -0.15625 C 0.78125 0 0.90625 0.0625 1.015625 0.0625 C 1.140625 0.0625 1.25 -0.015625 1.296875 -0.078125 C 1.328125 -0.140625 1.375 -0.375 1.421875 -0.515625 C 1.453125 -0.640625 1.53125 -0.96875 1.5625 -1.140625 C 1.609375 -1.296875 1.65625 -1.453125 1.6875 -1.609375 C 1.765625 -1.890625 1.78125 -1.953125 1.984375 -2.234375 C 2.171875 -2.515625 2.5 -2.875 3.03125 -2.875 C 3.421875 -2.875 3.4375 -2.515625 3.4375 -2.390625 C 3.4375 -2.21875 3.421875 -2.125 3.3125 -1.734375 Z M 3.03125 -0.5625 "
         style="stroke:none;stroke-width:0" /><path
         id="path1109"
         transform="translate(161.924341,133.215)"
         d="M 2.265625 -4.359375 C 2.265625 -4.46875 2.171875 -4.625 1.984375 -4.625 C 1.796875 -4.625 1.59375 -4.4375 1.59375 -4.234375 C 1.59375 -4.125 1.671875 -3.96875 1.875 -3.96875 C 2.0625 -3.96875 2.265625 -4.171875 2.265625 -4.359375 Z M 0.84375 -0.8125 C 0.8125 -0.71875 0.78125 -0.640625 0.78125 -0.515625 C 0.78125 -0.1875 1.046875 0.0625 1.4375 0.0625 C 2.125 0.0625 2.4375 -0.890625 2.4375 -1 C 2.4375 -1.09375 2.34375 -1.09375 2.328125 -1.09375 C 2.234375 -1.09375 2.21875 -1.046875 2.1875 -0.96875 C 2.03125 -0.40625 1.734375 -0.125 1.453125 -0.125 C 1.3125 -0.125 1.28125 -0.21875 1.28125 -0.375 C 1.28125 -0.53125 1.328125 -0.65625 1.390625 -0.8125 C 1.46875 -1 1.546875 -1.1875 1.609375 -1.375 C 1.671875 -1.546875 1.9375 -2.171875 1.953125 -2.265625 C 1.984375 -2.328125 2 -2.40625 2 -2.484375 C 2 -2.8125 1.71875 -3.078125 1.34375 -3.078125 C 0.640625 -3.078125 0.328125 -2.125 0.328125 -2 C 0.328125 -1.921875 0.421875 -1.921875 0.453125 -1.921875 C 0.546875 -1.921875 0.546875 -1.953125 0.578125 -2.03125 C 0.75 -2.625 1.0625 -2.875 1.3125 -2.875 C 1.421875 -2.875 1.484375 -2.828125 1.484375 -2.640625 C 1.484375 -2.46875 1.453125 -2.375 1.28125 -1.9375 Z M 0.84375 -0.8125 "
         style="stroke:none;stroke-width:0" /><path
         id="path1111"
         transform="translate(164.743151,133.215)"
         d="M 0.84375 -0.4375 C 0.828125 -0.34375 0.78125 -0.171875 0.78125 -0.15625 C 0.78125 0 0.90625 0.0625 1.015625 0.0625 C 1.140625 0.0625 1.25 -0.015625 1.296875 -0.078125 C 1.328125 -0.140625 1.375 -0.375 1.421875 -0.515625 C 1.453125 -0.640625 1.53125 -0.96875 1.5625 -1.140625 C 1.609375 -1.296875 1.65625 -1.453125 1.6875 -1.609375 C 1.765625 -1.890625 1.78125 -1.953125 1.984375 -2.234375 C 2.171875 -2.515625 2.5 -2.875 3.03125 -2.875 C 3.421875 -2.875 3.4375 -2.515625 3.4375 -2.390625 C 3.4375 -1.96875 3.140625 -1.203125 3.03125 -0.90625 C 2.953125 -0.703125 2.921875 -0.640625 2.921875 -0.53125 C 2.921875 -0.15625 3.21875 0.0625 3.578125 0.0625 C 4.28125 0.0625 4.578125 -0.890625 4.578125 -1 C 4.578125 -1.09375 4.5 -1.09375 4.46875 -1.09375 C 4.375 -1.09375 4.375 -1.046875 4.34375 -0.96875 C 4.1875 -0.40625 3.875 -0.125 3.609375 -0.125 C 3.453125 -0.125 3.421875 -0.21875 3.421875 -0.375 C 3.421875 -0.53125 3.46875 -0.625 3.59375 -0.9375 C 3.671875 -1.15625 3.953125 -1.890625 3.953125 -2.28125 C 3.953125 -2.953125 3.421875 -3.078125 3.046875 -3.078125 C 2.46875 -3.078125 2.078125 -2.71875 1.875 -2.4375 C 1.828125 -2.921875 1.421875 -3.078125 1.125 -3.078125 C 0.828125 -3.078125 0.671875 -2.859375 0.578125 -2.703125 C 0.421875 -2.4375 0.328125 -2.046875 0.328125 -2 C 0.328125 -1.921875 0.421875 -1.921875 0.453125 -1.921875 C 0.546875 -1.921875 0.546875 -1.9375 0.59375 -2.125 C 0.703125 -2.53125 0.84375 -2.875 1.109375 -2.875 C 1.296875 -2.875 1.34375 -2.71875 1.34375 -2.53125 C 1.34375 -2.40625 1.28125 -2.140625 1.21875 -1.953125 C 1.171875 -1.765625 1.109375 -1.484375 1.078125 -1.328125 Z M 0.84375 -0.4375 "
         style="stroke:none;stroke-width:0" /></g><path
       id="path1115"
       transform="matrix(1,0,0,-1,149.908,135.97)"
       d="M -0.00175 0.00125 L 20.256062 0.00125 "
       style="fill:none;stroke-width:0.398;stroke-linecap:butt;stroke-linejoin:miter;stroke:rgb(0%,0%,0%);stroke-opacity:1;stroke-miterlimit:10;" /><g
       id="g1119"
       style="fill:rgb(0%,0%,0%);fill-opacity:1;"><path
         id="path1117"
         transform="translate(157.167,145.294)"
         d="M 2.859375 -6.8125 C 2.859375 -6.8125 2.859375 -6.921875 2.734375 -6.921875 C 2.5 -6.921875 1.78125 -6.84375 1.515625 -6.8125 C 1.4375 -6.8125 1.328125 -6.796875 1.328125 -6.625 C 1.328125 -6.5 1.421875 -6.5 1.5625 -6.5 C 2.046875 -6.5 2.0625 -6.4375 2.0625 -6.328125 L 2.03125 -6.125 L 0.59375 -0.390625 C 0.546875 -0.25 0.546875 -0.234375 0.546875 -0.171875 C 0.546875 0.0625 0.75 0.109375 0.84375 0.109375 C 1 0.109375 1.15625 -0.015625 1.203125 -0.15625 L 1.390625 -0.90625 L 1.609375 -1.796875 C 1.671875 -2.03125 1.734375 -2.25 1.78125 -2.46875 C 1.796875 -2.53125 1.890625 -2.859375 1.890625 -2.921875 C 1.921875 -3.015625 2.234375 -3.5625 2.578125 -3.84375 C 2.796875 -4 3.09375 -4.1875 3.53125 -4.1875 C 3.953125 -4.1875 4.0625 -3.84375 4.0625 -3.484375 C 4.0625 -2.953125 3.6875 -1.859375 3.453125 -1.25 C 3.375 -1.03125 3.3125 -0.90625 3.3125 -0.703125 C 3.3125 -0.234375 3.671875 0.109375 4.140625 0.109375 C 5.078125 0.109375 5.4375 -1.34375 5.4375 -1.421875 C 5.4375 -1.53125 5.359375 -1.53125 5.328125 -1.53125 C 5.21875 -1.53125 5.21875 -1.5 5.171875 -1.34375 C 5.03125 -0.8125 4.703125 -0.109375 4.15625 -0.109375 C 3.984375 -0.109375 3.921875 -0.203125 3.921875 -0.4375 C 3.921875 -0.6875 4 -0.921875 4.09375 -1.140625 C 4.25 -1.578125 4.703125 -2.765625 4.703125 -3.34375 C 4.703125 -3.984375 4.3125 -4.40625 3.5625 -4.40625 C 2.9375 -4.40625 2.453125 -4.09375 2.078125 -3.640625 Z M 2.859375 -6.8125 "
         style="stroke:none;stroke-width:0" /></g></g></g></svg>