<?xml version="1.0" encoding="UTF-8"?>
<!DOCTYPE svg PUBLIC "-//W3C//DTD SVG 1.1//EN" "http://www.w3.org/Graphics/SVG/1.1/DTD/svg11.dtd">
<svg width="160mm" height="90mm" viewBox="0 0 16000 9000" version="1.1" xmlns="http://www.w3.org/2000/svg" stroke-width="28.222" stroke-linejoin="round" xml:space="preserve">
 <path fill="rgb(255,255,255)" stroke="none" d="M 7985,9004 L -24,9004 -24,0 15993,0 15993,9004 7985,9004 Z"/>
 <path fill="none" stroke="rgb(179,179,179)" stroke-linejoin="round" d="M 8806,7196 L 2034,7196 2034,1474 15579,1474 15579,7196 8806,7196 Z"/>
 <path fill="none" stroke="rgb(179,179,179)" stroke-linejoin="round" d="M 15579,7195 L 2034,7195"/>
 <path fill="none" stroke="rgb(179,179,179)" stroke-linejoin="round" d="M 15579,5287 L 2034,5287"/>
 <path fill="none" stroke="rgb(179,179,179)" stroke-linejoin="round" d="M 15579,3380 L 2034,3380"/>
 <path fill="none" stroke="rgb(179,179,179)" stroke-linejoin="round" d="M 15579,1473 L 2034,1473"/>
 <path fill="none" stroke="rgb(179,179,179)" stroke-linejoin="round" d="M 2034,7345 L 2034,7195"/>
 <path fill="none" stroke="rgb(179,179,179)" stroke-linejoin="round" d="M 2034,7345 L 2034,7195"/>
 <path fill="none" stroke="rgb(179,179,179)" stroke-linejoin="round" d="M 3388,7345 L 3388,7195"/>
 <path fill="none" stroke="rgb(179,179,179)" stroke-linejoin="round" d="M 3388,7345 L 3388,7195"/>
 <path fill="none" stroke="rgb(179,179,179)" stroke-linejoin="round" d="M 4743,7345 L 4743,7195"/>
 <path fill="none" stroke="rgb(179,179,179)" stroke-linejoin="round" d="M 4743,7345 L 4743,7195"/>
 <path fill="none" stroke="rgb(179,179,179)" stroke-linejoin="round" d="M 6097,7345 L 6097,7195"/>
 <path fill="none" stroke="rgb(179,179,179)" stroke-linejoin="round" d="M 6097,7345 L 6097,7195"/>
 <path fill="none" stroke="rgb(179,179,179)" stroke-linejoin="round" d="M 7452,7345 L 7452,7195"/>
 <path fill="none" stroke="rgb(179,179,179)" stroke-linejoin="round" d="M 7452,7345 L 7452,7195"/>
 <path fill="none" stroke="rgb(179,179,179)" stroke-linejoin="round" d="M 8806,7345 L 8806,7195"/>
 <path fill="none" stroke="rgb(179,179,179)" stroke-linejoin="round" d="M 8806,7345 L 8806,7195"/>
 <path fill="none" stroke="rgb(179,179,179)" stroke-linejoin="round" d="M 10160,7345 L 10160,7195"/>
 <path fill="none" stroke="rgb(179,179,179)" stroke-linejoin="round" d="M 10160,7345 L 10160,7195"/>
 <path fill="none" stroke="rgb(179,179,179)" stroke-linejoin="round" d="M 11515,7345 L 11515,7195"/>
 <path fill="none" stroke="rgb(179,179,179)" stroke-linejoin="round" d="M 11515,7345 L 11515,7195"/>
 <path fill="none" stroke="rgb(179,179,179)" stroke-linejoin="round" d="M 12869,7345 L 12869,7195"/>
 <path fill="none" stroke="rgb(179,179,179)" stroke-linejoin="round" d="M 12869,7345 L 12869,7195"/>
 <path fill="none" stroke="rgb(179,179,179)" stroke-linejoin="round" d="M 14224,7345 L 14224,7195"/>
 <path fill="none" stroke="rgb(179,179,179)" stroke-linejoin="round" d="M 14224,7345 L 14224,7195"/>
 <path fill="none" stroke="rgb(179,179,179)" stroke-linejoin="round" d="M 15579,7345 L 15579,7195"/>
 <path fill="none" stroke="rgb(179,179,179)" stroke-linejoin="round" d="M 15579,7345 L 15579,7195"/>
 <path fill="none" stroke="rgb(179,179,179)" stroke-linejoin="round" d="M 2034,7195 L 15579,7195"/>
 <path fill="none" stroke="rgb(179,179,179)" stroke-linejoin="round" d="M 1884,7195 L 2034,7195"/>
 <path fill="none" stroke="rgb(179,179,179)" stroke-linejoin="round" d="M 1884,7195 L 2034,7195"/>
 <path fill="none" stroke="rgb(179,179,179)" stroke-linejoin="round" d="M 1884,5287 L 2034,5287"/>
 <path fill="none" stroke="rgb(179,179,179)" stroke-linejoin="round" d="M 1884,5287 L 2034,5287"/>
 <path fill="none" stroke="rgb(179,179,179)" stroke-linejoin="round" d="M 1884,3380 L 2034,3380"/>
 <path fill="none" stroke="rgb(179,179,179)" stroke-linejoin="round" d="M 1884,3380 L 2034,3380"/>
 <path fill="none" stroke="rgb(179,179,179)" stroke-linejoin="round" d="M 1884,1473 L 2034,1473"/>
 <path fill="none" stroke="rgb(179,179,179)" stroke-linejoin="round" d="M 1884,1473 L 2034,1473"/>
 <path fill="none" stroke="rgb(179,179,179)" stroke-linejoin="round" d="M 2034,7195 L 2034,1473"/>
 <path fill="none" stroke="rgb(255,66,14)" stroke-width="80" stroke-linejoin="round" d="M 14006,4831 L 8019,4809 5027,4803 3530,4802 2782,4802"/>
 <path fill="rgb(255,66,14)" stroke="none" d="M 13881,4831 L 14006,4956 14131,4831 14006,4706 13881,4831 Z"/>
 <path fill="none" stroke="rgb(255,66,14)" stroke-linejoin="round" d="M 13881,4831 L 14006,4956 14131,4831 14006,4706 13881,4831 Z"/>
 <path fill="rgb(255,66,14)" stroke="none" d="M 7895,4809 L 8019,4934 8144,4809 8019,4684 7895,4809 Z"/>
 <path fill="none" stroke="rgb(255,66,14)" stroke-linejoin="round" d="M 7895,4809 L 8019,4934 8144,4809 8019,4684 7895,4809 Z"/>
 <path fill="rgb(255,66,14)" stroke="none" d="M 4902,4803 L 5027,4928 5152,4803 5027,4678 4902,4803 Z"/>
 <path fill="none" stroke="rgb(255,66,14)" stroke-linejoin="round" d="M 4902,4803 L 5027,4928 5152,4803 5027,4678 4902,4803 Z"/>
 <path fill="rgb(255,66,14)" stroke="none" d="M 3405,4802 L 3530,4927 3655,4802 3530,4677 3405,4802 Z"/>
 <path fill="none" stroke="rgb(255,66,14)" stroke-linejoin="round" d="M 3405,4802 L 3530,4927 3655,4802 3530,4677 3405,4802 Z"/>
 <path fill="rgb(255,66,14)" stroke="none" d="M 2657,4802 L 2782,4927 2907,4802 2782,4677 2657,4802 Z"/>
 <path fill="none" stroke="rgb(255,66,14)" stroke-linejoin="round" d="M 2657,4802 L 2782,4927 2907,4802 2782,4677 2657,4802 Z"/>
 <path fill="none" stroke="rgb(0,69,134)" stroke-width="80" stroke-linejoin="round" d="M 14006,4960 L 8019,4451 5027,4342 3530,4335 2782,4325"/>
 <path fill="rgb(0,69,134)" stroke="none" d="M 13881,4835 L 13881,5085 14131,5085 14131,4835 13881,4835 Z"/>
 <path fill="none" stroke="rgb(0,69,134)" stroke-linejoin="round" d="M 13881,4835 L 13881,5085 14131,5085 14131,4835 13881,4835 Z"/>
 <path fill="rgb(0,69,134)" stroke="none" d="M 7895,4326 L 7895,4575 8144,4575 8144,4326 7895,4326 Z"/>
 <path fill="none" stroke="rgb(0,69,134)" stroke-linejoin="round" d="M 7895,4326 L 7895,4575 8144,4575 8144,4326 7895,4326 Z"/>
 <path fill="rgb(0,69,134)" stroke="none" d="M 4902,4217 L 4902,4467 5152,4467 5152,4217 4902,4217 Z"/>
 <path fill="none" stroke="rgb(0,69,134)" stroke-linejoin="round" d="M 4902,4217 L 4902,4467 5152,4467 5152,4217 4902,4217 Z"/>
 <path fill="rgb(0,69,134)" stroke="none" d="M 3405,4210 L 3405,4460 3655,4460 3655,4210 3405,4210 Z"/>
 <path fill="none" stroke="rgb(0,69,134)" stroke-linejoin="round" d="M 3405,4210 L 3405,4460 3655,4460 3655,4210 3405,4210 Z"/>
 <path fill="rgb(0,69,134)" stroke="none" d="M 2657,4200 L 2657,4450 2907,4450 2907,4200 2657,4200 Z"/>
 <path fill="none" stroke="rgb(0,69,134)" stroke-linejoin="round" d="M 2657,4200 L 2657,4450 2907,4450 2907,4200 2657,4200 Z"/>
 <text class="TextShape"><tspan class="TextParagraph" font-family="Liberation Sans, sans-serif" font-size="353px" font-weight="400"><tspan class="TextPosition" x="1941" y="7763"><tspan fill="rgb(0,0,0)" stroke="none">0</tspan></tspan></tspan></text>
 <text class="TextShape"><tspan class="TextParagraph" font-family="Liberation Sans, sans-serif" font-size="353px" font-weight="400"><tspan class="TextPosition" x="3150" y="7763"><tspan fill="rgb(0,0,0)" stroke="none">0.2</tspan></tspan></tspan></text>
 <text class="TextShape"><tspan class="TextParagraph" font-family="Liberation Sans, sans-serif" font-size="353px" font-weight="400"><tspan class="TextPosition" x="4505" y="7763"><tspan fill="rgb(0,0,0)" stroke="none">0.4</tspan></tspan></tspan></text>
 <text class="TextShape"><tspan class="TextParagraph" font-family="Liberation Sans, sans-serif" font-size="353px" font-weight="400"><tspan class="TextPosition" x="5859" y="7763"><tspan fill="rgb(0,0,0)" stroke="none">0.6</tspan></tspan></tspan></text>
 <text class="TextShape"><tspan class="TextParagraph" font-family="Liberation Sans, sans-serif" font-size="353px" font-weight="400"><tspan class="TextPosition" x="7214" y="7763"><tspan fill="rgb(0,0,0)" stroke="none">0.8</tspan></tspan></tspan></text>
 <text class="TextShape"><tspan class="TextParagraph" font-family="Liberation Sans, sans-serif" font-size="353px" font-weight="400"><tspan class="TextPosition" x="8714" y="7763"><tspan fill="rgb(0,0,0)" stroke="none">1</tspan></tspan></tspan></text>
 <text class="TextShape"><tspan class="TextParagraph" font-family="Liberation Sans, sans-serif" font-size="353px" font-weight="400"><tspan class="TextPosition" x="9923" y="7763"><tspan fill="rgb(0,0,0)" stroke="none">1.2</tspan></tspan></tspan></text>
 <text class="TextShape"><tspan class="TextParagraph" font-family="Liberation Sans, sans-serif" font-size="353px" font-weight="400"><tspan class="TextPosition" x="11278" y="7763"><tspan fill="rgb(0,0,0)" stroke="none">1.4</tspan></tspan></tspan></text>
 <text class="TextShape"><tspan class="TextParagraph" font-family="Liberation Sans, sans-serif" font-size="353px" font-weight="400"><tspan class="TextPosition" x="12632" y="7763"><tspan fill="rgb(0,0,0)" stroke="none">1.6</tspan></tspan></tspan></text>
 <text class="TextShape"><tspan class="TextParagraph" font-family="Liberation Sans, sans-serif" font-size="353px" font-weight="400"><tspan class="TextPosition" x="13987" y="7763"><tspan fill="rgb(0,0,0)" stroke="none">1.8</tspan></tspan></tspan></text>
 <text class="TextShape"><tspan class="TextParagraph" font-family="Liberation Sans, sans-serif" font-size="353px" font-weight="400"><tspan class="TextPosition" x="15487" y="7763"><tspan fill="rgb(0,0,0)" stroke="none">2</tspan></tspan></tspan></text>
 <text class="TextShape"><tspan class="TextParagraph" font-family="Liberation Sans, sans-serif" font-size="353px" font-weight="400"><tspan class="TextPosition" x="1599" y="7316"><tspan fill="rgb(0,0,0)" stroke="none">0</tspan></tspan></tspan></text>
 <text class="TextShape"><tspan class="TextParagraph" font-family="Liberation Sans, sans-serif" font-size="353px" font-weight="400"><tspan class="TextPosition" x="1308" y="5408"><tspan fill="rgb(0,0,0)" stroke="none">0.1</tspan></tspan></tspan></text>
 <text class="TextShape"><tspan class="TextParagraph" font-family="Liberation Sans, sans-serif" font-size="353px" font-weight="400"><tspan class="TextPosition" x="1308" y="3500"><tspan fill="rgb(0,0,0)" stroke="none">0.2</tspan></tspan></tspan></text>
 <text class="TextShape"><tspan class="TextParagraph" font-family="Liberation Sans, sans-serif" font-size="353px" font-weight="400"><tspan class="TextPosition" x="1308" y="1593"><tspan fill="rgb(0,0,0)" stroke="none">0.3</tspan></tspan></tspan></text>
 <text class="TextShape"><tspan class="TextParagraph" font-family="Liberation Sans, sans-serif" font-size="459px" font-weight="400"><tspan class="TextPosition" x="4122" y="851"><tspan fill="rgb(0,0,0)" stroke="none">numerical indicator of discrete  inf-sup </tspan></tspan></tspan></text>
 <path fill="none" stroke="rgb(0,69,134)" stroke-width="80" stroke-linejoin="round" d="M 11996,1774 L 12796,1774"/>
 <path fill="rgb(0,69,134)" stroke="none" d="M 12290,1669 L 12290,1880 12501,1880 12501,1669 12290,1669 Z"/>
 <path fill="none" stroke="rgb(0,69,134)" stroke-linejoin="round" d="M 12290,1669 L 12290,1880 12501,1880 12501,1669 12290,1669 Z"/>
 <path fill="none" stroke="rgb(255,66,14)" stroke-width="80" stroke-linejoin="round" d="M 11996,2272 L 12796,2272"/>
 <path fill="rgb(255,66,14)" stroke="none" d="M 12290,2272 L 12396,2378 12501,2272 12396,2167 12290,2272 Z"/>
 <path fill="none" stroke="rgb(255,66,14)" stroke-linejoin="round" d="M 12290,2272 L 12396,2378 12501,2272 12396,2167 12290,2272 Z"/>
 <text class="TextShape"><tspan class="TextParagraph" font-family="Liberation Sans, sans-serif" font-size="353px" font-weight="400"><tspan class="TextPosition" x="12896" y="1894"><tspan fill="rgb(0,0,0)" stroke="none">singular case</tspan></tspan></tspan></text>
 <text class="TextShape"><tspan class="TextParagraph" font-family="Liberation Sans, sans-serif" font-size="353px" font-weight="400"><tspan class="TextPosition" x="12896" y="2392"><tspan fill="rgb(0,0,0)" stroke="none">regular case</tspan></tspan></tspan></text>
 <text class="TextShape"><tspan class="TextParagraph" font-family="Liberation Sans, sans-serif" font-size="318px" font-weight="400"><tspan class="TextPosition" x="8397" y="8410"><tspan fill="rgb(0,0,0)" stroke="none">h</tspan></tspan></tspan></text>
 <text class="TextShape" transform="translate(813,4783) rotate(-90) translate(-813,-4783)"><tspan class="TextParagraph" font-family="Liberation Sans, sans-serif" font-size="318px" font-weight="400"><tspan class="TextPosition" x="813" y="4783"><tspan fill="rgb(0,0,0)" stroke="none">mu</tspan></tspan></tspan></text>
</svg>